SplineFontDB: 3.2
FontName: PaperCuts2
FullName: Paper Cuts 2
FamilyName: Paper Cuts 2
Weight: Book
Copyright: Open Source (o) Daniel Poeira, 2007. All rights are free for all mankind.
Version: 2.000 2007 initial release
ItalicAngle: 0
UnderlinePosition: -100
UnderlineWidth: 50
Ascent: 800
Descent: 200
InvalidEm: 0
sfntRevision: 0x00020000
LayerCount: 2
Layer: 0 1 "Back" 1
Layer: 1 1 "Fore" 0
XUID: [1021 282 2058025922 595]
StyleMap: 0x0040
FSType: 0
OS2Version: 2
OS2_WeightWidthSlopeOnly: 0
OS2_UseTypoMetrics: 0
CreationTime: 1178704084
ModificationTime: 1665110632
PfmFamily: 17
TTFWeight: 400
TTFWidth: 5
LineGap: 19
VLineGap: 0
Panose: 2 0 5 6 0 0 0 2 0 3
OS2TypoAscent: 767
OS2TypoAOffset: 0
OS2TypoDescent: -341
OS2TypoDOffset: 0
OS2TypoLinegap: 37
OS2WinAscent: 980
OS2WinAOffset: 0
OS2WinDescent: 488
OS2WinDOffset: 0
HheadAscent: 980
HheadAOffset: 0
HheadDescent: -488
HheadDOffset: 0
OS2SubXSize: 700
OS2SubYSize: 650
OS2SubXOff: 0
OS2SubYOff: 140
OS2SupXSize: 700
OS2SupYSize: 650
OS2SupXOff: 0
OS2SupYOff: 477
OS2StrikeYSize: 50
OS2StrikeYPos: 250
OS2CapHeight: 725
OS2XHeight: 492
OS2Vendor: 'PYRS'
OS2CodePages: 00000011.00000000
OS2UnicodeRanges: 8000002f.0000000a.00000000.00000000
DEI: 91125
TtTable: prep
PUSHW_1
 0
CALL
SVTCA[y-axis]
PUSHW_3
 1
 4
 7
CALL
PUSHW_1
 0
DUP
RCVT
RDTG
ROUND[Black]
RTG
WCVTP
EndTTInstrs
TtTable: fpgm
PUSHW_1
 0
FDEF
MPPEM
PUSHW_1
 9
LT
IF
PUSHB_2
 1
 1
INSTCTRL
EIF
PUSHW_1
 511
SCANCTRL
PUSHW_1
 68
SCVTCI
PUSHW_2
 9
 3
SDS
SDB
ENDF
PUSHW_1
 1
FDEF
DUP
DUP
RCVT
ROUND[Black]
WCVTP
PUSHB_1
 1
ADD
ENDF
PUSHW_1
 2
FDEF
PUSHW_1
 1
LOOPCALL
POP
ENDF
PUSHW_1
 3
FDEF
DUP
GC[cur]
PUSHB_1
 3
CINDEX
GC[cur]
GT
IF
SWAP
EIF
DUP
ROLL
DUP
ROLL
MD[grid]
ABS
ROLL
DUP
GC[cur]
DUP
ROUND[Grey]
SUB
ABS
PUSHB_1
 4
CINDEX
GC[cur]
DUP
ROUND[Grey]
SUB
ABS
GT
IF
SWAP
NEG
ROLL
EIF
MDAP[rnd]
DUP
PUSHB_1
 0
GTEQ
IF
ROUND[Black]
DUP
PUSHB_1
 0
EQ
IF
POP
PUSHB_1
 64
EIF
ELSE
ROUND[Black]
DUP
PUSHB_1
 0
EQ
IF
POP
PUSHB_1
 64
NEG
EIF
EIF
MSIRP[no-rp0]
ENDF
PUSHW_1

StartChar: K
Encoding: 75 75 4
Width: 654
GlyphClass: 1
Flags: W
LayerCount: 2
Fore
SplineSet
227 660 m 1,0,-1
 222 429 l 1,1,-1
 395 679 l 1,2,-1
 607 633 l 1,3,-1
 289 303 l 1,4,-1
 641 48 l 1,5,-1
 359 -12 l 1,6,-1
 203 255 l 1,7,-1
 188 -34 l 1,8,-1
 22 -51 l 1,9,-1
 27 684 l 1,10,-1
 227 660 l 1,0,-1
EndSplineSet
Validated: 1
EndChar

StartChar: L
Encoding: 76 76 5
Width: 521
GlyphClass: 1
Flags: W
LayerCount: 2
Fore
SplineSet
21 663 m 1,0,-1
 167 721 l 1,1,-1
 167 129 l 1,2,-1
 486 204 l 1,3,-1
 510 -5 l 1,4,-1
 33 -24 l 1,5,-1
 21 663 l 1,0,-1
EndSplineSet
Validated: 1
EndChar

StartChar: M
Encoding: 77 77 6
Width: 747
GlyphClass: 1
Flags: W
LayerCount: 2
Fore
SplineSet
20 0 m 1,0,-1
 45 676 l 1,1,-1
 215 676 l 1,2,-1
 320 439 l 1,3,-1
 388 696 l 1,4,-1
 564 696 l 1,5,-1
 729 -24 l 1,6,-1
 507 -53 l 1,7,-1
 448 445 l 1,8,-1
 337 205 l 1,9,-1
 196 443 l 1,10,-1
 210 2 l 1,11,-1
 20 0 l 1,0,-1
EndSplineSet
Validated: 1
EndChar

StartChar: N
Encoding: 78 78 7
Width: 604
GlyphClass: 1
Flags: W
LayerCount: 2
Fore
SplineSet
20 0 m 1,0,-1
 37 718 l 1,1,-1
 246 718 l 1,2,-1
 393 268 l 1,3,-1
 406 748 l 1,4,-1
 568 740 l 1,5,-1
 519 27 l 1,6,-1
 335 -13 l 1,7,-1
 182 443 l 1,8,-1
 187 -19 l 1,9,-1
 20 0 l 1,0,-1
EndSplineSet
Validated: 1
EndChar

StartChar: O
Encoding: 79 79 8
Width: 541
GlyphClass: 1
Flags: W
LayerCount: 2
Fore
SplineSet
501 680 m 1,0,-1
 520 -2 l 1,1,-1
 21 -5 l 1,2,-1
 55 672 l 1,3,-1
 501 680 l 1,0,-1
197 138 m 1,4,-1
 387 140 l 1,5,-1
 368 525 l 1,6,-1
 202 499 l 1,7,-1
 197 138 l 1,4,-1
EndSplineSet
Validated: 1
EndChar

StartChar: P
Encoding: 80 80 9
Width: 518
GlyphClass: 1
Flags: W
LayerCount: 2
Fore
SplineSet
441 686 m 1,0,-1
 505 308 l 1,1,-1
 226 272 l 1,2,-1
 251 -18 l 1,3,-1
 82 -26 l 1,4,-1
 19 677 l 1,5,-1
 441 686 l 1,0,-1
199 569 m 1,6,-1
 214 410 l 1,7,-1
 363 434 l 1,8,-1
 331 558 l 1,9,-1
 199 569 l 1,6,-1
EndSplineSet
Validated: 1
EndChar

StartChar: Q
Encoding: 81 81 10
Width: 535
GlyphClass: 1
Flags: W
LayerCount: 2
Fore
SplineSet
20 700 m 1,0,-1
 514 673 l 1,1,-1
 514 48 l 1,2,-1
 50 -9 l 1,3,-1
 20 700 l 1,0,-1
172 145 m 1,4,-1
 381 127 l 1,5,-1
 369 524 l 1,6,-1
 187 536 l 1,7,-1
 172 145 l 1,4,-1
300 254 m 1,8,-1
 454 -111 l 1,9,-1
 327 -125 l 1,10,-1
 258 270 l 1,11,-1
 300 254 l 1,8,-1
EndSplineSet
Validated: 5
EndChar

StartChar: R
Encoding: 82 82 11
Width: 570
GlyphClass: 1
Flags: W
LayerCount: 2
Fore
SplineSet
467 665 m 1,0,-1
 514 318 l 1,1,-1
 390 286 l 1,2,-1
 613 -74 l 1,3,-1
 382 -53 l 1,4,-1
 273 265 l 1,5,-1
 215 286 l 1,6,-1
 209 -32 l 1,7,-1
 21 -19 l 1,8,-1
 59 700 l 1,9,-1
 467 665 l 1,0,-1
355 423 m 1,10,-1
 320 547 l 1,11,-1
 240 579 l 1,12,-1
 212 391 l 1,13,-1
 355 423 l 1,10,-1
EndSplineSet
Validated: 1
EndChar

StartChar: S
Encoding: 83 83 12
Width: 535
GlyphClass: 1
Flags: W
LayerCount: 2
Fore
SplineSet
63 690 m 1,0,-1
 479 683 l 1,1,-1
 473 527 l 1,2,-1
 178 552 l 1,3,-1
 174 414 l 1,4,-1
 471 435 l 1,5,-1
 515 -37 l 1,6,-1
 19 -7 l 1,7,-1
 42 188 l 1,8,-1
 342 107 l 1,9,-1
 351 295 l 1,10,-1
 49 322 l 1,11,-1
 63 690 l 1,0,-1
EndSplineSet
Validated: 1
EndChar

StartChar: T
Encoding: 84 84 13
Width: 523
GlyphClass: 1
Flags: W
LayerCount: 2
Fore
SplineSet
14 690 m 1,0,-1
 507 713 l 1,1,-1
 507 550 l 1,2,-1
 352 540 l 1,3,-1
 365 -8 l 1,4,-1
 189 -3 l 1,5,-1
 204 545 l 1,6,-1
 26 540 l 1,7,-1
 14 690 l 1,0,-1
EndSplineSet
Validated: 1
EndChar

StartChar: U
Encoding: 85 85 14
Width: 547
GlyphClass: 1
Flags: W
LayerCount: 2
Fore
SplineSet
21 673 m 1,0,-1
 188 703 l 1,1,-1
 223 175 l 1,2,-1
 387 159 l 1,3,-1
 403 666 l 1,4,-1
 525 687 l 1,5,-1
 517 3 l 1,6,-1
 50 -8 l 1,7,-1
 21 673 l 1,0,-1
EndSplineSet
Validated: 1
EndChar

StartChar: V
Encoding: 86 86 15
Width: 588
GlyphClass: 1
Flags: W
LayerCount: 2
Fore
SplineSet
230 679 m 1,0,-1
 319 313 l 1,1,-1
 418 671 l 1,2,-1
 573 678 l 1,3,-1
 307 -3 l 1,4,-1
 12 692 l 1,5,-1
 230 679 l 1,0,-1
EndSplineSet
Validated: 1
EndChar

StartChar: W
Encoding: 87 87 16
Width: 677
GlyphClass: 1
Flags: W
LayerCount: 2
Fore
SplineSet
196 672 m 1,0,-1
 257 277 l 1,1,-1
 321 404 l 1,2,-1
 418 390 l 1,3,-1
 491 254 l 1,4,-1
 563 711 l 1,5,-1
 706 697 l 1,6,-1
 545 0 l 1,7,-1
 415 6 l 1,8,-1
 373 277 l 1,9,-1
 288 3 l 1,10,-1
 174 8 l 1,11,-1
 17 697 l 1,12,-1
 196 672 l 1,0,-1
EndSplineSet
Validated: 1
EndChar

StartChar: X
Encoding: 88 88 17
Width: 646
GlyphClass: 1
Flags: W
LayerCount: 2
Fore
SplineSet
222 668 m 1,0,-1
 306 399 l 1,1,-1
 324 680 l 1,2,-1
 523 688 l 1,3,-1
 379 379 l 1,4,-1
 630 6 l 1,5,-1
 407 3 l 1,6,-1
 327 275 l 1,7,-1
 222 9 l 1,8,-1
 23 -3 l 1,9,-1
 217 301 l 1,10,-1
 20 691 l 1,11,-1
 222 668 l 1,0,-1
EndSplineSet
Validated: 1
EndChar

StartChar: Y
Encoding: 89 89 18
Width: 616
GlyphClass: 1
Flags: W
LayerCount: 2
Fore
SplineSet
20 618 m 1,0,-1
 204 700 l 1,1,-1
 348 472 l 1,2,-1
 430 746 l 1,3,-1
 596 685 l 1,4,-1
 432 376 l 1,5,-1
 447 -33 l 1,6,-1
 244 -3 l 1,7,-1
 305 358 l 1,8,-1
 20 618 l 1,0,-1
EndSplineSet
Validated: 1
EndChar

StartChar: Z
Encoding: 90 90 19
Width: 604
GlyphClass: 1
Flags: W
LayerCount: 2
Fore
SplineSet
59 690 m 1,0,-1
 545 700 l 1,1,-1
 584 509 l 1,2,-1
 214 167 l 1,3,-1
 580 187 l 1,4,-1
 538 -23 l 1,5,-1
 39 7 l 1,6,-1
 70 238 l 1,7,-1
 425 537 l 1,8,-1
 19 541 l 1,9,-1
 59 690 l 1,0,-1
EndSplineSet
Validated: 1
EndChar

StartChar: bracketleft
Encoding: 91 91 20
Width: 263
GlyphClass: 1
Flags: W
LayerCount: 2
Fore
SplineSet
20 760 m 1,0,-1
 247 753 l 1,1,-1
 232 608 l 1,2,-1
 123 612 l 1,3,-1
 119 -124 l 1,4,-1
 232 -131 l 1,5,-1
 222 -226 l 1,6,-1
 45 -205 l 1,7,-1
 20 760 l 1,0,-1
EndSplineSet
Validated: 1
EndChar

StartChar: backslash
Encoding: 92 92 21
Width: 374
GlyphClass: 1
Flags: W
LayerCount: 2
Fore
SplineSet
9 678 m 1,0,-1
 88 734 l 1,1,-1
 365 11 l 1,2,-1
 305 -22 l 1,3,-1
 9 678 l 1,0,-1
EndSplineSet
Validated: 1
EndChar

StartChar: bracketright
Encoding: 93 93 22
Width: 243
GlyphClass: 1
Flags: W
LayerCount: 2
Fore
SplineSet
11 720 m 1,0,-1
 206 744 l 1,1,-1
 222 -223 l 1,2,-1
 23 -227 l 1,3,-1
 19 -151 l 1,4,-1
 154 -155 l 1,5,-1
 142 656 l 1,6,-1
 15 652 l 1,7,-1
 11 720 l 1,0,-1
EndSplineSet
Validated: 1
EndChar

StartChar: asciicircum
Encoding: 94 94 23
Width: 456
GlyphClass: 1
Flags: W
LayerCount: 2
Fore
SplineSet
13 397 m 1,0,-1
 237 708 l 1,1,-1
 443 346 l 1,2,-1
 374 351 l 1,3,-1
 237 621 l 1,4,-1
 74 356 l 1,5,-1
 13 397 l 1,0,-1
EndSplineSet
Validated: 1
EndChar

StartChar: underscore
Encoding: 95 95 24
Width: 531
GlyphClass: 1
Flags: W
LayerCount: 2
Fore
SplineSet
20 -146 m 1,0,-1
 513 -164 l 1,1,-1
 500 -209 l 1,2,-1
 23 -202 l 1,3,-1
 20 -146 l 1,0,-1
EndSplineSet
Validated: 1
EndChar

StartChar: grave
Encoding: 96 96 25
Width: 166
GlyphClass: 1
Flags: W
LayerCount: 2
Fore
SplineSet
11 634 m 1,0,-1
 83 692 l 1,1,-1
 152 520 l 1,2,-1
 108 506 l 1,3,-1
 11 634 l 1,0,-1
EndSplineSet
Validated: 1
EndChar

StartChar: a
Encoding: 97 97 26
Width: 452
GlyphClass: 1
Flags: W
LayerCount: 2
Fore
SplineSet
202 516 m 5,0,-1
 413 346 l 5,1,-1
 387 -82 l 5,2,-1
 25 -1 l 5,3,-1
 77 233 l 5,4,-1
 318 304 l 5,5,-1
 210 400 l 5,6,-1
 94 304 l 5,7,-1
 37 374 l 5,8,-1
 202 516 l 5,0,-1
132 59 m 5,9,-1
 294 19 l 5,10,-1
 298 179 l 5,11,-1
 149 155 l 5,12,-1
 132 59 l 5,9,-1
EndSplineSet
EndChar

StartChar: b
Encoding: 98 98 27
Width: 432
GlyphClass: 1
Flags: W
LayerCount: 2
Fore
SplineSet
37 706 m 1,0,-1
 169 730 l 1,1,-1
 163 406 l 1,2,-1
 336 421 l 1,3,-1
 421 45 l 1,4,-1
 115 3 l 1,5,-1
 106 88 l 1,6,-1
 88 -3 l 1,7,-1
 21 -6 l 1,8,-1
 37 706 l 1,0,-1
166 121 m 1,9,-1
 318 139 l 1,10,-1
 276 303 l 1,11,-1
 166 321 l 1,12,-1
 166 121 l 1,9,-1
EndSplineSet
Validated: 1
EndChar

StartChar: c
Encoding: 99 99 28
Width: 393
GlyphClass: 1
Flags: W
LayerCount: 2
Fore
SplineSet
357 286 m 1,0,-1
 135 279 l 1,1,-1
 110 66 l 1,2,-1
 364 95 l 1,3,-1
 303 -58 l 1,4,-1
 17 3 l 1,5,-1
 58 359 l 1,6,-1
 329 432 l 1,7,-1
 357 286 l 1,0,-1
EndSplineSet
Validated: 1
EndChar

StartChar: d
Encoding: 100 100 29
Width: 451
GlyphClass: 1
Flags: W
LayerCount: 2
Fore
SplineSet
396 -77 m 1,0,-1
 32 32 l 1,1,-1
 71 409 l 1,2,-1
 283 414 l 1,3,-1
 267 799 l 1,4,-1
 406 759 l 1,5,-1
 396 -77 l 1,0,-1
297 90 m 1,6,-1
 279 304 l 1,7,-1
 149 288 l 1,8,-1
 142 130 l 1,9,-1
 297 90 l 1,6,-1
EndSplineSet
Validated: 1
EndChar

StartChar: e
Encoding: 101 101 30
Width: 434
GlyphClass: 1
Flags: W
LayerCount: 2
Fore
SplineSet
25 171 m 1,0,-1
 88 398 l 1,1,-1
 340 446 l 1,2,-1
 435 162 l 1,3,-1
 148 128 l 1,4,-1
 197 34 l 1,5,-1
 403 82 l 1,6,-1
 363 -66 l 1,7,-1
 88 -53 l 1,8,-1
 25 171 l 1,0,-1
169 332 m 1,9,-1
 136 231 l 1,10,-1
 341 252 l 1,11,-1
 274 335 l 1,12,-1
 169 332 l 1,9,-1
EndSplineSet
Validated: 1
EndChar

StartChar: f
Encoding: 102 102 31
Width: 404
GlyphClass: 1
Flags: W
LayerCount: 2
Fore
SplineSet
79 -89 m 5,0,-1
 85 332 l 5,1,-1
 22 349 l 5,2,-1
 33 432 l 5,3,-1
 74 426 l 5,4,-1
 73 598 l 5,5,-1
 253 753 l 5,6,-1
 384 588 l 5,7,-1
 317 518 l 5,8,-1
 253 633 l 5,9,-1
 195 540 l 5,10,-1
 191 422 l 5,11,-1
 337 410 l 5,12,-1
 325 324 l 5,13,-1
 197 328 l 5,14,-1
 195 -120 l 5,15,-1
 79 -89 l 5,0,-1
EndSplineSet
Validated: 1
EndChar

StartChar: g
Encoding: 103 103 32
Width: 537
GlyphClass: 1
InSpiro: 1
Flags: W
LayerCount: 2
Fore
SplineSet
361.831054688 644.58984375 m 1,0,-1
 476.00390625 619.02734375 l 1,1,-1
 437.081054688 -173.776367188 l 1,2,-1
 95.0771484375 -134.568359375 l 1,3,-1
 77.603515625 10.6025390625 l 1,4,-1
 180.606445312 54.150390625 l 1,5,-1
 191.250976562 -46.53125 l 1,6,-1
 349.512695312 -39.94921875 l 1,7,-1
 357.421875 185.85546875 l 1,8,-1
 77.33984375 196.37890625 l 1,9,-1
 98.5322265625 548.407226562 l 1,10,-1
 352.204101562 566.735351562 l 1,11,-1
 361.831054688 644.58984375 l 1,0,-1
  Spiro
    361.831 644.59 v
    476.004 619.027 v
    437.082 -173.776 v
    95.0775 -134.569 v
    77.6033 10.6025 v
    180.606 54.1503 v
    191.251 -46.5308 v
    349.512 -39.949 v
    357.422 185.855 v
    77.3395 196.379 v
    98.5324 548.407 v
    352.204 566.735 v
    0 0 z
  EndSpiro
355.005859375 303.21875 m 1,12,-1
 347.671875 471.501953125 l 1,13,-1
 187.786132812 445.33984375 l 1,14,-1
 177.1640625 298.26171875 l 1,15,-1
 355.005859375 303.21875 l 1,12,-1
  Spiro
    355.005 303.218 v
    347.672 471.502 v
    187.786 445.34 v
    177.164 298.261 v
    0 0 z
  EndSpiro
EndSplineSet
EndChar

StartChar: h
Encoding: 104 104 33
Width: 420
GlyphClass: 1
Flags: W
LayerCount: 2
Fore
SplineSet
21 742 m 1,0,-1
 140 824 l 1,1,-1
 140 463 l 1,2,-1
 331 478 l 1,3,-1
 406 -41 l 1,4,-1
 265 -13 l 1,5,-1
 259 356 l 1,6,-1
 143 389 l 1,7,-1
 140 -7 l 1,8,-1
 20 14 l 1,9,-1
 21 742 l 1,0,-1
EndSplineSet
Validated: 1
EndChar

StartChar: i
Encoding: 105 105 34
Width: 208
GlyphClass: 1
Flags: W
LayerCount: 2
Fore
SplineSet
34 641 m 1,0,-1
 136 617 l 1,1,-1
 109 530 l 1,2,-1
 16 545 l 1,3,-1
 34 641 l 1,0,-1
34 460 m 1,4,-1
 127 469 l 1,5,-1
 173 17 l 1,6,-1
 37 -38 l 1,7,-1
 34 460 l 1,4,-1
EndSplineSet
Validated: 1
EndChar

StartChar: j
Encoding: 106 106 35
Width: 189
GlyphClass: 1
Flags: W
LayerCount: 2
Fore
SplineSet
167 743 m 5,0,-1
 161 634 l 5,1,-1
 30 649 l 5,2,-1
 39 734 l 5,3,-1
 167 743 l 5,0,-1
36 525 m 5,4,-1
 158 543 l 5,5,-1
 173 -77 l 5,6,-1
 -24 -168 l 5,7,-1
 -148 -92 l 5,8,-1
 -130 17 l 5,9,-1
 -49 42 l 5,10,-1
 -49 -34 l 5,11,-1
 -10 -49 l 5,12,-1
 41 -16 l 5,13,-1
 36 525 l 5,4,-1
EndSplineSet
Validated: 1
EndChar

StartChar: k
Encoding: 107 107 36
Width: 422
GlyphClass: 1
Flags: W
LayerCount: 2
Fore
SplineSet
43 671 m 1,0,-1
 160 748 l 1,1,-1
 163 296 l 1,2,-1
 262 474 l 1,3,-1
 386 487 l 1,4,-1
 227 261 l 1,5,-1
 412 -3 l 1,6,-1
 287 -38 l 1,7,-1
 160 229 l 1,8,-1
 160 -35 l 1,9,-1
 20 -6 l 1,10,-1
 43 671 l 1,0,-1
EndSplineSet
Validated: 1
EndChar

StartChar: l
Encoding: 108 108 37
Width: 257
GlyphClass: 1
Flags: W
LayerCount: 2
Fore
SplineSet
36 764 m 1,0,-1
 172 770 l 1,1,-1
 202 -10 l 1,2,-1
 71 -13 l 1,3,-1
 81 643 l 1,4,-1
 36 764 l 1,0,-1
EndSplineSet
Validated: 1
EndChar

StartChar: m
Encoding: 109 109 38
Width: 702
GlyphClass: 1
Flags: W
LayerCount: 2
Fore
SplineSet
95 519 m 1,0,-1
 98 441 l 1,1,-1
 279 455 l 1,2,-1
 316 392 l 1,3,-1
 330 448 l 1,4,-1
 609 445 l 1,5,-1
 654 -34 l 1,6,-1
 519 -56 l 1,7,-1
 502 345 l 1,8,-1
 392 362 l 1,9,-1
 409 34 l 1,10,-1
 284 27 l 1,11,-1
 255 350 l 1,12,-1
 135 352 l 1,13,-1
 132 -5 l 1,14,-1
 5 -17 l 1,15,-1
 7 477 l 1,16,-1
 95 519 l 1,0,-1
EndSplineSet
Validated: 1
EndChar

StartChar: n
Encoding: 110 110 39
Width: 443
GlyphClass: 1
Flags: W
LayerCount: 2
Fore
SplineSet
32 550 m 1,0,-1
 159 545 l 1,1,-1
 163 446 l 1,2,-1
 378 386 l 1,3,-1
 425 -59 l 1,4,-1
 296 -105 l 1,5,-1
 274 279 l 1,6,-1
 155 347 l 1,7,-1
 131 -29 l 1,8,-1
 21 -32 l 1,9,-1
 28 446 l 1,10,-1
 32 550 l 1,0,-1
EndSplineSet
Validated: 1
EndChar

StartChar: o
Encoding: 111 111 40
Width: 453
GlyphClass: 1
Flags: W
LayerCount: 2
Fore
SplineSet
31 381 m 1,0,-1
 390 433 l 1,1,-1
 421 -29 l 1,2,-1
 66 -8 l 1,3,-1
 31 381 l 1,0,-1
161 97 m 1,4,-1
 319 74 l 1,5,-1
 299 326 l 1,6,-1
 142 297 l 1,7,-1
 161 97 l 1,4,-1
EndSplineSet
Validated: 1
EndChar

StartChar: p
Encoding: 112 112 41
Width: 411
GlyphClass: 1
Flags: W
LayerCount: 2
Fore
SplineSet
9 573 m 5,0,-1
 330 528 l 5,1,-1
 389 151 l 5,2,-1
 150 106 l 5,3,-1
 163 -127 l 5,4,-1
 60 -119 l 5,5,-1
 9 573 l 5,0,-1
128 478 m 5,6,-1
 155 223 l 5,7,-1
 296 249 l 5,8,-1
 258 443 l 5,9,-1
 128 478 l 5,6,-1
EndSplineSet
EndChar

StartChar: q
Encoding: 113 113 42
Width: 469
GlyphClass: 1
Flags: W
LayerCount: 2
Fore
SplineSet
41 162 m 5,0,-1
 21 575 l 5,1,-1
 275 590 l 5,2,-1
 313 549 l 5,3,-1
 313 593 l 5,4,-1
 414 604 l 5,5,-1
 408 127 l 5,6,-1
 431 -208 l 5,7,-1
 321 -211 l 5,8,-1
 310 133 l 5,9,-1
 41 162 l 5,0,-1
104 486 m 5,10,-1
 131 220 l 5,11,-1
 287 211 l 5,12,-1
 284 468 l 5,13,-1
 104 486 l 5,10,-1
EndSplineSet
EndChar

StartChar: r
Encoding: 114 114 43
Width: 463
GlyphClass: 1
Flags: W
LayerCount: 2
Fore
SplineSet
133 505 m 1,0,-1
 159 379 l 1,1,-1
 267 476 l 1,2,-1
 427 473 l 1,3,-1
 440 301 l 1,4,-1
 263 378 l 1,5,-1
 196 241 l 1,6,-1
 210 -44 l 1,7,-1
 100 -118 l 1,8,-1
 44 520 l 1,9,-1
 133 505 l 1,0,-1
EndSplineSet
Validated: 1
EndChar

StartChar: s
Encoding: 115 115 44
Width: 413
GlyphClass: 1
Flags: W
LayerCount: 2
Fore
SplineSet
316 329 m 1,0,-1
 143 433 l 1,1,-1
 111 332 l 1,2,-1
 339 244 l 1,3,-1
 374 -45 l 1,4,-1
 -25 -20 l 1,5,-1
 39 117 l 1,6,-1
 275 88 l 1,7,-1
 238 172 l 1,8,-1
 41 226 l 1,9,-1
 -10 384 l 1,10,-1
 125 548 l 1,11,-1
 417 423 l 1,12,-1
 316 329 l 1,0,-1
EndSplineSet
Validated: 1
EndChar

StartChar: t
Encoding: 116 116 45
Width: 288
GlyphClass: 1
Flags: W
LayerCount: 2
Fore
SplineSet
148 681 m 1,0,-1
 151 493 l 1,1,-1
 276 488 l 1,2,-1
 275 389 l 1,3,-1
 146 385 l 1,4,-1
 143 22 l 1,5,-1
 211 -23 l 1,6,-1
 207 -115 l 1,7,-1
 41 -77 l 1,8,-1
 60 378 l 1,9,-1
 -5 380 l 1,10,-1
 -7 491 l 1,11,-1
 48 493 l 1,12,-1
 51 639 l 1,13,-1
 148 681 l 1,0,-1
EndSplineSet
Validated: 1
EndChar

StartChar: u
Encoding: 117 117 46
Width: 455
GlyphClass: 1
Flags: W
LayerCount: 2
Fore
SplineSet
29 472 m 1,0,-1
 159 475 l 1,1,-1
 129 119 l 1,2,-1
 226 68 l 1,3,-1
 298 114 l 1,4,-1
 285 468 l 1,5,-1
 408 424 l 1,6,-1
 406 15 l 1,7,-1
 260 -34 l 1,8,-1
 22 28 l 1,9,-1
 29 472 l 1,0,-1
EndSplineSet
Validated: 1
EndChar

StartChar: v
Encoding: 118 118 47
Width: 480
GlyphClass: 1
Flags: W
LayerCount: 2
Fore
SplineSet
10 443 m 1,0,-1
 187 492 l 1,1,-1
 306 144 l 1,2,-1
 378 479 l 1,3,-1
 463 426 l 1,4,-1
 331 -3 l 1,5,-1
 10 443 l 1,0,-1
EndSplineSet
Validated: 1
EndChar

StartChar: w
Encoding: 119 119 48
Width: 540
GlyphClass: 1
Flags: W
LayerCount: 2
Fore
SplineSet
142 464 m 1,0,-1
 196 238 l 1,1,-1
 305 353 l 1,2,-1
 390 226 l 1,3,-1
 400 442 l 1,4,-1
 521 442 l 1,5,-1
 457 -70 l 1,6,-1
 314 226 l 1,7,-1
 190 -77 l 1,8,-1
 15 429 l 1,9,-1
 142 464 l 1,0,-1
EndSplineSet
Validated: 1
EndChar

StartChar: x
Encoding: 120 120 49
Width: 526
GlyphClass: 1
Flags: W
LayerCount: 2
Fore
SplineSet
186 439 m 1,0,-1
 511 25 l 1,1,-1
 400 24 l 1,2,-1
 31 395 l 1,3,-1
 186 439 l 1,0,-1
497 381 m 1,4,-1
 156 20 l 1,5,-1
 18 32 l 1,6,-1
 383 398 l 1,7,-1
 497 381 l 1,4,-1
EndSplineSet
Validated: 5
EndChar

StartChar: y
Encoding: 121 121 50
Width: 447
GlyphClass: 1
Flags: W
LayerCount: 2
Fore
SplineSet
149 473 m 1,0,-1
 170 159 l 1,1,-1
 298 87 l 1,2,-1
 336 505 l 1,3,-1
 439 459 l 1,4,-1
 402 -10 l 1,5,-1
 278 -258 l 1,6,-1
 184 -224 l 1,7,-1
 265 0 l 1,8,-1
 93 94 l 1,9,-1
 25 424 l 1,10,-1
 149 473 l 1,0,-1
EndSplineSet
Validated: 1
EndChar

StartChar: z
Encoding: 122 122 51
Width: 493
GlyphClass: 1
Flags: W
LayerCount: 2
Fore
SplineSet
74 406 m 1,0,-1
 471 414 l 1,1,-1
 233 72 l 1,2,-1
 447 80 l 1,3,-1
 463 -20 l 1,4,-1
 22 -4 l 1,5,-1
 276 306 l 1,6,-1
 42 310 l 1,7,-1
 74 406 l 1,0,-1
EndSplineSet
Validated: 1
EndChar

StartChar: braceleft
Encoding: 123 123 52
Width: 356
GlyphClass: 1
Flags: W
LayerCount: 2
Fore
SplineSet
315 649 m 1,0,-1
 231 657 l 1,1,-1
 175 613 l 1,2,-1
 163 346 l 1,3,-1
 109 285 l 1,4,-1
 155 257 l 1,5,-1
 175 -56 l 1,6,-1
 242 -109 l 1,7,-1
 338 -115 l 1,8,-1
 336 -204 l 1,9,-1
 214 -201 l 1,10,-1
 107 -99 l 1,11,-1
 104 227 l 1,12,-1
 18 280 l 1,13,-1
 107 349 l 1,14,-1
 130 644 l 1,15,-1
 211 713 l 1,16,-1
 328 715 l 1,17,-1
 315 649 l 1,0,-1
EndSplineSet
Validated: 1
EndChar

StartChar: bar
Encoding: 124 124 53
Width: 108
GlyphClass: 1
Flags: W
LayerCount: 2
Fore
SplineSet
21 679 m 1,0,-1
 85 716 l 1,1,-1
 85 -191 l 1,2,-1
 40 -212 l 1,3,-1
 21 679 l 1,0,-1
EndSplineSet
Validated: 1
EndChar

StartChar: braceright
Encoding: 125 125 54
Width: 311
GlyphClass: 1
Flags: W
LayerCount: 2
Fore
SplineSet
16 706 m 1,0,-1
 113 708 l 1,1,-1
 202 636 l 1,2,-1
 221 349 l 1,3,-1
 299 271 l 1,4,-1
 218 205 l 1,5,-1
 227 -83 l 1,6,-1
 155 -177 l 1,7,-1
 19 -180 l 1,8,-1
 19 -102 l 1,9,-1
 130 -105 l 1,10,-1
 171 -47 l 1,11,-1
 158 232 l 1,12,-1
 216 268 l 1,13,-1
 163 335 l 1,14,-1
 160 595 l 1,15,-1
 97 647 l 1,16,-1
 14 653 l 1,17,-1
 16 706 l 1,0,-1
EndSplineSet
Validated: 1
EndChar

StartChar: asciitilde
Encoding: 126 126 55
Width: 593
GlyphClass: 1
Flags: W
LayerCount: 2
Fore
SplineSet
197 359 m 1,0,-1
 434 263 l 1,1,-1
 498 324 l 1,2,-1
 579 310 l 1,3,-1
 443 205 l 1,4,-1
 185 289 l 1,5,-1
 93 217 l 1,6,-1
 15 226 l 1,7,-1
 197 359 l 1,0,-1
EndSplineSet
Validated: 1
EndChar

StartChar: Euro
Encoding: 8364 8364 56
Width: 527
GlyphClass: 1
Flags: W
LayerCount: 2
Fore
SplineSet
391 379 m 1,0,-1
 431 339 l 1,1,-1
 13 336 l 1,2,-1
 19 385 l 1,3,-1
 391 379 l 1,0,-1
398 285 m 1,4,-1
 385 242 l 1,5,-1
 25 245 l 1,6,-1
 40 291 l 1,7,-1
 398 285 l 1,4,-1
343 688 m 1,8,-1
 458 664 l 1,9,-1
 510 524 l 1,10,-1
 440 509 l 1,11,-1
 425 576 l 1,12,-1
 331 618 l 1,13,-1
 240 576 l 1,14,-1
 182 485 l 1,15,-1
 179 173 l 1,16,-1
 273 55 l 1,17,-1
 391 45 l 1,18,-1
 416 88 l 1,19,-1
 491 79 l 1,20,-1
 434 6 l 1,21,-1
 258 -3 l 1,22,-1
 164 70 l 1,23,-1
 98 173 l 1,24,-1
 101 491 l 1,25,-1
 152 585 l 1,26,-1
 228 642 l 1,27,-1
 343 688 l 1,8,-1
EndSplineSet
Validated: 5
EndChar

StartChar: quotesinglbase
Encoding: 8218 8218 57
Width: 190
GlyphClass: 1
Flags: W
LayerCount: 2
Fore
SplineSet
73 -13 m 1,0,-1
 13 48 l 1,1,-1
 108 105 l 1,2,-1
 175 6 l 1,3,-1
 165 -64 l 1,4,-1
 44 -105 l 1,5,-1
 73 -13 l 1,0,-1
EndSplineSet
Validated: 1
EndChar

StartChar: florin
Encoding: 402 402 58
Width: 452
GlyphClass: 1
Flags: W
LayerCount: 2
Fore
SplineSet
440 593 m 1,0,-1
 306 603 l 1,1,-1
 289 553 l 1,2,-1
 310 -60 l 1,3,-1
 212 -161 l 1,4,-1
 8 -137 l 1,5,-1
 159 -121 l 1,6,-1
 206 -60 l 1,7,-1
 196 566 l 1,8,-1
 239 663 l 1,9,-1
 420 653 l 1,10,-1
 440 593 l 1,0,-1
125 452 m 1,11,-1
 413 456 l 1,12,-1
 410 415 l 1,13,-1
 125 395 l 1,14,-1
 125 452 l 1,11,-1
EndSplineSet
Validated: 5
EndChar

StartChar: circumflex
Encoding: 710 710 59
Width: 350
GlyphClass: 1
Flags: W
LayerCount: 2
Fore
SplineSet
11 513 m 1,0,-1
 175 674 l 1,1,-1
 336 490 l 1,2,-1
 183 573 l 1,3,-1
 11 513 l 1,0,-1
EndSplineSet
Validated: 1
EndChar

StartChar: Scaron
Encoding: 352 352 60
Width: 529
GlyphClass: 1
Flags: W
LayerCount: 2
Fore
SplineSet
60 690 m 1,0,-1
 476 683 l 1,1,-1
 472 499 l 1,2,-1
 200 539 l 1,3,-1
 190 456 l 1,4,-1
 468 435 l 1,5,-1
 512 -37 l 1,6,-1
 16 -7 l 1,7,-1
 40 205 l 1,8,-1
 344 124 l 1,9,-1
 357 258 l 1,10,-1
 46 322 l 1,11,-1
 60 690 l 1,0,-1
300 815 m 1,12,-1
 431 859 l 1,13,-1
 288 736 l 1,14,-1
 156 859 l 1,15,-1
 300 815 l 1,12,-1
EndSplineSet
Validated: 1
EndChar

StartChar: bullet
Encoding: 8226 8226 61
Width: 290
GlyphClass: 1
Flags: W
LayerCount: 2
Fore
SplineSet
13 303 m 1,0,-1
 140 425 l 1,1,-1
 277 344 l 1,2,-1
 150 148 l 1,3,-1
 13 303 l 1,0,-1
EndSplineSet
Validated: 1
EndChar

StartChar: copyright
Encoding: 169 169 62
Width: 1010
GlyphClass: 1
Flags: W
LayerCount: 2
Fore
SplineSet
588 610 m 1,0,-1
 317 537 l 1,1,-1
 276 181 l 1,2,-1
 562 120 l 1,3,-1
 623 273 l 1,4,-1
 397 289 l 1,5,-1
 400 429 l 1,6,-1
 616 464 l 1,7,-1
 588 610 l 1,0,-1
118 302 m 1,8,-1
 214 45 l 1,9,-1
 643 25 l 1,10,-1
 866 316 l 1,11,-1
 666 666 l 1,12,-1
 265 663 l 1,13,-1
 118 302 l 1,8,-1
192 751 m 1,14,-1
 714 782 l 1,15,-1
 995 316 l 1,16,-1
 700 -62 l 1,17,-1
 135 -28 l 1,18,-1
 5 331 l 1,19,-1
 192 751 l 1,14,-1
EndSplineSet
Validated: 9
EndChar

StartChar: trademark
Encoding: 8482 8482 63
Width: 496
GlyphClass: 1
Flags: W
LayerCount: 2
Fore
SplineSet
14 752 m 1,0,-1
 191 760 l 1,1,-1
 191 702 l 1,2,-1
 135 699 l 1,3,-1
 140 503 l 1,4,-1
 77 504 l 1,5,-1
 82 701 l 1,6,-1
 19 699 l 1,7,-1
 14 752 l 1,0,-1
215 515 m 1,8,-1
 223 757 l 1,9,-1
 285 757 l 1,10,-1
 322 672 l 1,11,-1
 347 764 l 1,12,-1
 410 764 l 1,13,-1
 469 507 l 1,14,-1
 389 496 l 1,15,-1
 368 674 l 1,16,-1
 328 589 l 1,17,-1
 278 674 l 1,18,-1
 283 516 l 1,19,-1
 215 515 l 1,8,-1
EndSplineSet
Validated: 1
EndChar

StartChar: Ograve
Encoding: 210 210 64
Width: 535
GlyphClass: 1
Flags: W
LayerCount: 2
Fore
SplineSet
498 680 m 1,0,-1
 517 -2 l 1,1,-1
 18 -5 l 1,2,-1
 52 672 l 1,3,-1
 498 680 l 1,0,-1
194 138 m 1,4,-1
 384 140 l 1,5,-1
 365 525 l 1,6,-1
 199 499 l 1,7,-1
 194 138 l 1,4,-1
276 801 m 1,8,-1
 276 704 l 1,9,-1
 190 809 l 1,10,-1
 276 801 l 1,8,-1
EndSplineSet
Validated: 1
EndChar

StartChar: D
Encoding: 68 68 65
Width: 490
GlyphClass: 1
Flags: W
LayerCount: 2
Fore
SplineSet
440 571 m 1,0,-1
 469 75 l 1,1,-1
 21 2 l 1,2,-1
 38 719 l 1,3,-1
 440 571 l 1,0,-1
151 530 m 1,4,-1
 144 137 l 1,5,-1
 361 188 l 1,6,-1
 353 448 l 1,7,-1
 151 530 l 1,4,-1
EndSplineSet
Validated: 1
EndChar

StartChar: zero
Encoding: 48 48 66
Width: 465
GlyphClass: 1
Flags: W
LayerCount: 2
Fore
SplineSet
14 647 m 1,0,-1
 205 757 l 1,1,-1
 420 691 l 1,2,-1
 433 79 l 1,3,-1
 238 -31 l 1,4,-1
 53 35 l 1,5,-1
 14 647 l 1,0,-1
208 639 m 1,6,-1
 112 581 l 1,7,-1
 127 199 l 1,8,-1
 304 601 l 1,9,-1
 208 639 l 1,6,-1
346 381 m 1,10,-1
 169 96 l 1,11,-1
 237 82 l 1,12,-1
 343 154 l 1,13,-1
 346 381 l 1,10,-1
EndSplineSet
Validated: 1
EndChar

StartChar: one
Encoding: 49 49 67
Width: 322
GlyphClass: 1
Flags: W
LayerCount: 2
Fore
SplineSet
-4 509 m 1,0,-1
 42 665 l 1,1,-1
 120 688 l 1,2,-1
 193 691 l 1,3,-1
 190 52 l 1,4,-1
 284 52 l 1,5,-1
 281 -45 l 1,6,-1
 11 -21 l 1,7,-1
 20 64 l 1,8,-1
 117 58 l 1,9,-1
 113 587 l 1,10,-1
 -4 509 l 1,0,-1
EndSplineSet
Validated: 1
EndChar

StartChar: two
Encoding: 50 50 68
Width: 467
GlyphClass: 1
Flags: W
LayerCount: 2
Fore
SplineSet
87 636 m 1,0,-1
 240 716 l 1,1,-1
 415 614 l 1,2,-1
 418 398 l 1,3,-1
 129 92 l 1,4,-1
 450 108 l 1,5,-1
 380 -10 l 1,6,-1
 17 0 l 1,7,-1
 52 102 l 1,8,-1
 307 398 l 1,9,-1
 294 531 l 1,10,-1
 141 550 l 1,11,-1
 122 455 l 1,12,-1
 27 468 l 1,13,-1
 87 636 l 1,0,-1
EndSplineSet
Validated: 1
EndChar

StartChar: three
Encoding: 51 51 69
Width: 471
GlyphClass: 1
Flags: W
LayerCount: 2
Fore
SplineSet
32 680 m 1,0,-1
 430 687 l 1,1,-1
 300 409 l 1,2,-1
 397 328 l 1,3,-1
 397 87 l 1,4,-1
 323 0 l 1,5,-1
 75 7 l 1,6,-1
 18 144 l 1,7,-1
 122 147 l 1,8,-1
 162 77 l 1,9,-1
 283 90 l 1,10,-1
 320 211 l 1,11,-1
 202 372 l 1,12,-1
 273 566 l 1,13,-1
 78 586 l 1,14,-1
 32 680 l 1,0,-1
EndSplineSet
Validated: 1
EndChar

StartChar: four
Encoding: 52 52 70
Width: 455
GlyphClass: 1
Flags: W
LayerCount: 2
Fore
SplineSet
190 725 m 1,0,-1
 137 467 l 1,1,-1
 329 431 l 1,2,-1
 314 735 l 1,3,-1
 420 732 l 1,4,-1
 434 -7 l 1,5,-1
 310 0 l 1,6,-1
 321 315 l 1,7,-1
 10 364 l 1,8,-1
 98 774 l 1,9,-1
 190 725 l 1,0,-1
EndSplineSet
Validated: 1
EndChar

StartChar: five
Encoding: 53 53 71
Width: 457
GlyphClass: 1
Flags: W
LayerCount: 2
Fore
SplineSet
354 777 m 1,0,-1
 406 646 l 1,1,-1
 155 649 l 1,2,-1
 159 493 l 1,3,-1
 337 497 l 1,4,-1
 432 287 l 1,5,-1
 411 37 l 1,6,-1
 145 -11 l 1,7,-1
 -73 210 l 1,8,-1
 112 203 l 1,9,-1
 156 98 l 1,10,-1
 290 127 l 1,11,-1
 317 240 l 1,12,-1
 227 410 l 1,13,-1
 40 392 l 1,14,-1
 65 788 l 1,15,-1
 354 777 l 1,0,-1
EndSplineSet
Validated: 1
EndChar

StartChar: six
Encoding: 54 54 72
Width: 504
GlyphClass: 1
Flags: W
LayerCount: 2
Fore
SplineSet
418 511 m 1,0,-1
 300 619 l 1,1,-1
 196 515 l 1,2,-1
 168 372 l 1,3,-1
 500 323 l 1,4,-1
 442 0 l 1,5,-1
 80 4 l 1,6,-1
 21 305 l 1,7,-1
 73 551 l 1,8,-1
 300 764 l 1,9,-1
 476 611 l 1,10,-1
 418 511 l 1,0,-1
157 273 m 1,11,-1
 170 111 l 1,12,-1
 350 108 l 1,13,-1
 375 227 l 1,14,-1
 157 273 l 1,11,-1
EndSplineSet
Validated: 1
EndChar

StartChar: seven
Encoding: 55 55 73
Width: 443
GlyphClass: 1
Flags: W
LayerCount: 2
Fore
SplineSet
-19 687 m 1,0,-1
 412 703 l 1,1,-1
 384 494 l 1,2,-1
 348 311 l 1,3,-1
 353 3 l 1,4,-1
 259 -3 l 1,5,-1
 246 308 l 1,6,-1
 285 494 l 1,7,-1
 310 611 l 1,8,-1
 27 578 l 1,9,-1
 -19 687 l 1,0,-1
118 400 m 1,10,-1
 458 418 l 1,11,-1
 443 336 l 1,12,-1
 120 339 l 1,13,-1
 118 400 l 1,10,-1
EndSplineSet
Validated: 5
EndChar

StartChar: eight
Encoding: 56 56 74
Width: 459
GlyphClass: 1
Flags: W
LayerCount: 2
Fore
SplineSet
415 655 m 1,0,-1
 433 377 l 1,1,-1
 383 318 l 1,2,-1
 439 281 l 1,3,-1
 399 -70 l 1,4,-1
 24 -6 l 1,5,-1
 62 286 l 1,6,-1
 126 345 l 1,7,-1
 73 377 l 1,8,-1
 126 705 l 1,9,-1
 415 655 l 1,0,-1
187 444 m 1,10,-1
 271 397 l 1,11,-1
 347 426 l 1,12,-1
 343 565 l 1,13,-1
 206 579 l 1,14,-1
 187 444 l 1,10,-1
262 260 m 1,15,-1
 159 236 l 1,16,-1
 135 98 l 1,17,-1
 311 58 l 1,18,-1
 345 198 l 1,19,-1
 262 260 l 1,15,-1
EndSplineSet
Validated: 1
EndChar

StartChar: nine
Encoding: 57 57 75
Width: 461
GlyphClass: 1
Flags: W
LayerCount: 2
Fore
SplineSet
61 659 m 1,0,-1
 255 750 l 1,1,-1
 437 634 l 1,2,-1
 462 211 l 1,3,-1
 343 -22 l 1,4,-1
 23 64 l 1,5,-1
 62 159 l 1,6,-1
 292 97 l 1,7,-1
 346 249 l 1,8,-1
 127 241 l 1,9,-1
 16 443 l 1,10,-1
 61 659 l 1,0,-1
125 495 m 1,11,-1
 176 365 l 1,12,-1
 319 373 l 1,13,-1
 365 481 l 1,14,-1
 311 605 l 1,15,-1
 190 612 l 1,16,-1
 125 495 l 1,11,-1
EndSplineSet
Validated: 1
EndChar

StartChar: colon
Encoding: 58 58 76
Width: 125
GlyphClass: 1
Flags: W
LayerCount: 2
Fore
SplineSet
-8 463 m 1,0,-1
 72 500 l 1,1,-1
 129 410 l 1,2,-1
 44 348 l 1,3,-1
 -8 463 l 1,0,-1
-9 87 m 1,4,-1
 71 126 l 1,5,-1
 129 52 l 1,6,-1
 56 -12 l 1,7,-1
 -9 87 l 1,4,-1
EndSplineSet
Validated: 1
EndChar

StartChar: semicolon
Encoding: 59 59 77
Width: 207
GlyphClass: 1
Flags: W
LayerCount: 2
Fore
SplineSet
13 427 m 1,0,-1
 68 473 l 1,1,-1
 119 406 l 1,2,-1
 62 358 l 1,3,-1
 13 427 l 1,0,-1
38 106 m 1,4,-1
 19 -3 l 1,5,-1
 132 -3 l 1,6,-1
 125 -97 l 1,7,-1
 25 -152 l 1,8,-1
 183 -115 l 1,9,-1
 195 85 l 1,10,-1
 38 106 l 1,4,-1
EndSplineSet
Validated: 9
EndChar

StartChar: less
Encoding: 60 60 78
Width: 599
GlyphClass: 1
Flags: W
LayerCount: 2
Fore
SplineSet
203 312 m 1,0,-1
 581 70 l 1,1,-1
 6 309 l 1,2,-1
 569 563 l 1,3,-1
 203 312 l 1,0,-1
EndSplineSet
Validated: 1
EndChar

StartChar: equal
Encoding: 61 61 79
Width: 621
GlyphClass: 1
Flags: W
LayerCount: 2
Fore
SplineSet
20 435 m 1,0,-1
 594 532 l 1,1,-1
 606 422 l 1,2,-1
 20 435 l 1,0,-1
606 268 m 1,3,-1
 54 301 l 1,4,-1
 14 213 l 1,5,-1
 606 268 l 1,3,-1
EndSplineSet
Validated: 9
EndChar

StartChar: greater
Encoding: 62 62 80
Width: 621
GlyphClass: 1
Flags: W
LayerCount: 2
Fore
SplineSet
18 534 m 1,0,-1
 615 318 l 1,1,-1
 39 74 l 1,2,-1
 396 315 l 1,3,-1
 18 534 l 1,0,-1
EndSplineSet
Validated: 1
EndChar

StartChar: question
Encoding: 63 63 81
Width: 425
GlyphClass: 1
Flags: W
LayerCount: 2
Fore
SplineSet
6 461 m 1,0,-1
 31 723 l 1,1,-1
 385 819 l 1,2,-1
 465 350 l 1,3,-1
 280 310 l 1,4,-1
 288 112 l 1,5,-1
 193 107 l 1,6,-1
 142 346 l 1,7,-1
 349 442 l 1,8,-1
 292 665 l 1,9,-1
 135 635 l 1,10,-1
 104 477 l 1,11,-1
 6 461 l 1,0,-1
188 30 m 1,12,-1
 288 38 l 1,13,-1
 315 -119 l 1,14,-1
 162 -127 l 1,15,-1
 188 30 l 1,12,-1
EndSplineSet
Validated: 1
EndChar

StartChar: quoteleft
Encoding: 8216 8216 82
Width: 238
GlyphClass: 1
Flags: W
LayerCount: 2
Fore
SplineSet
11 616 m 1,0,-1
 146 708 l 1,1,-1
 222 437 l 1,2,-1
 134 414 l 1,3,-1
 11 616 l 1,0,-1
EndSplineSet
Validated: 1
EndChar

StartChar: quotedblleft
Encoding: 8220 8220 83
Width: 440
GlyphClass: 1
Flags: W
LayerCount: 2
Fore
SplineSet
183 676 m 1,0,-1
 127 562 l 1,1,-1
 135 403 l 1,2,-1
 16 573 l 1,3,-1
 106 695 l 1,4,-1
 183 676 l 1,0,-1
429 655 m 1,5,-1
 307 578 l 1,6,-1
 291 451 l 1,7,-1
 225 578 l 1,8,-1
 294 721 l 1,9,-1
 429 655 l 1,5,-1
EndSplineSet
Validated: 1
EndChar

StartChar: quoteright
Encoding: 8217 8217 84
Width: 197
GlyphClass: 1
Flags: W
LayerCount: 2
Fore
SplineSet
79 713 m 1,0,-1
 186 631 l 1,1,-1
 74 471 l 1,2,-1
 15 524 l 1,3,-1
 79 713 l 1,0,-1
EndSplineSet
Validated: 1
EndChar

StartChar: quotedblright
Encoding: 8221 8221 85
Width: 429
GlyphClass: 1
Flags: W
LayerCount: 2
Fore
SplineSet
184 429 m 1,0,-1
 121 551 l 1,1,-1
 21 562 l 1,2,-1
 16 714 l 1,3,-1
 154 689 l 1,4,-1
 184 429 l 1,0,-1
361 448 m 1,5,-1
 317 542 l 1,6,-1
 267 534 l 1,7,-1
 223 611 l 1,8,-1
 276 736 l 1,9,-1
 411 647 l 1,10,-1
 361 448 l 1,5,-1
EndSplineSet
Validated: 1
EndChar

StartChar: tilde
Encoding: 732 732 86
Width: 351
GlyphClass: 1
Flags: W
LayerCount: 2
Fore
SplineSet
11 558 m 1,0,-1
 106 671 l 1,1,-1
 234 581 l 1,2,-1
 335 657 l 1,3,-1
 245 506 l 1,4,-1
 124 593 l 1,5,-1
 11 558 l 1,0,-1
EndSplineSet
Validated: 1
EndChar

StartChar: Ydieresis
Encoding: 376 376 87
Width: 614
GlyphClass: 1
Flags: W
LayerCount: 2
Fore
SplineSet
19 618 m 1,0,-1
 267 694 l 1,1,-1
 352 464 l 1,2,-1
 395 661 l 1,3,-1
 595 685 l 1,4,-1
 431 376 l 1,5,-1
 446 -33 l 1,6,-1
 237 12 l 1,7,-1
 304 358 l 1,8,-1
 19 618 l 1,0,-1
253 776 m 1,9,-1
 207 730 l 1,10,-1
 137 776 l 1,11,-1
 198 833 l 1,12,-1
 253 776 l 1,9,-1
444 888 m 1,13,-1
 510 827 l 1,14,-1
 471 742 l 1,15,-1
 401 785 l 1,16,-1
 444 888 l 1,13,-1
EndSplineSet
Validated: 1
EndChar

StartChar: exclamdown
Encoding: 161 161 89
Width: 201
GlyphClass: 1
Flags: W
LayerCount: 2
Fore
SplineSet
93 290 m 1,0,-1
 14 -178 l 1,1,-1
 131 -226 l 1,2,-1
 131 255 l 1,3,-1
 93 290 l 1,0,-1
109 363 m 1,4,-1
 36 423 l 1,5,-1
 103 512 l 1,6,-1
 189 417 l 1,7,-1
 109 363 l 1,4,-1
EndSplineSet
Validated: 9
EndChar

StartChar: cent
Encoding: 162 162 90
Width: 444
GlyphClass: 1
Flags: W
LayerCount: 2
Fore
SplineSet
46 442 m 1,0,-1
 344 499 l 1,1,-1
 434 365 l 1,2,-1
 146 332 l 1,3,-1
 143 131 l 1,4,-1
 421 167 l 1,5,-1
 360 -3 l 1,6,-1
 15 33 l 1,7,-1
 46 442 l 1,0,-1
166 -33 m 1,8,-1
 267 -47 l 1,9,-1
 153 -231 l 1,10,-1
 180 -94 l 1,11,-1
 166 -33 l 1,8,-1
165 583 m 1,12,-1
 98 672 l 1,13,-1
 180 647 l 1,14,-1
 250 516 l 1,15,-1
 162 495 l 1,16,-1
 165 583 l 1,12,-1
264 325 m 1,17,-1
 282 180 l 1,18,-1
 208 156 l 1,19,-1
 194 315 l 1,20,-1
 264 325 l 1,17,-1
EndSplineSet
Validated: 1
EndChar

StartChar: sterling
Encoding: 163 163 91
Width: 505
GlyphClass: 1
Flags: W
LayerCount: 2
Fore
SplineSet
140 561 m 1,0,-1
 234 711 l 1,1,-1
 395 685 l 1,2,-1
 406 535 l 1,3,-1
 312 535 l 1,4,-1
 309 603 l 1,5,-1
 245 543 l 1,6,-1
 230 378 l 1,7,-1
 365 352 l 1,8,-1
 222 311 l 1,9,-1
 237 79 l 1,10,-1
 402 67 l 1,11,-1
 488 176 l 1,12,-1
 440 -37 l 1,13,-1
 237 22 l 1,14,-1
 133 -4 l 1,15,-1
 13 64 l 1,16,-1
 58 191 l 1,17,-1
 159 127 l 1,18,-1
 159 307 l 1,19,-1
 73 348 l 1,20,-1
 163 371 l 1,21,-1
 140 561 l 1,0,-1
EndSplineSet
Validated: 1
EndChar

StartChar: yen
Encoding: 165 165 92
Width: 526
GlyphClass: 1
Flags: W
LayerCount: 2
Fore
SplineSet
49 720 m 1,0,-1
 268 362 l 1,1,-1
 352 672 l 1,2,-1
 487 680 l 1,3,-1
 348 354 l 1,4,-1
 515 314 l 1,5,-1
 292 262 l 1,6,-1
 507 199 l 1,7,-1
 292 163 l 1,8,-1
 252 -68 l 1,9,-1
 216 167 l 1,10,-1
 17 183 l 1,11,-1
 204 259 l 1,12,-1
 13 314 l 1,13,-1
 192 338 l 1,14,-1
 49 601 l 1,15,-1
 49 720 l 1,0,-1
EndSplineSet
Validated: 1
EndChar

StartChar: brokenbar
Encoding: 166 166 93
Width: 129
GlyphClass: 1
Flags: W
LayerCount: 2
Fore
SplineSet
12 682 m 1,0,-1
 91 725 l 1,1,-1
 63 344 l 1,2,-1
 12 682 l 1,0,-1
65 171 m 1,3,-1
 114 -209 l 1,4,-1
 50 -206 l 1,5,-1
 65 171 l 1,3,-1
EndSplineSet
Validated: 1
EndChar

StartChar: section
Encoding: 167 167 94
Width: 393
GlyphClass: 1
Flags: W
LayerCount: 2
Fore
SplineSet
357 642 m 1,0,-1
 372 491 l 1,1,-1
 280 504 l 1,2,-1
 261 618 l 1,3,-1
 166 583 l 1,4,-1
 131 514 l 1,5,-1
 232 398 l 1,6,-1
 375 286 l 1,7,-1
 372 125 l 1,8,-1
 288 24 l 1,9,-1
 338 -119 l 1,10,-1
 139 -207 l 1,11,-1
 15 -95 l 1,12,-1
 115 -42 l 1,13,-1
 174 -164 l 1,14,-1
 285 -95 l 1,15,-1
 213 16 l 1,16,-1
 91 95 l 1,17,-1
 30 260 l 1,18,-1
 123 390 l 1,19,-1
 57 517 l 1,20,-1
 134 623 l 1,21,-1
 261 700 l 1,22,-1
 357 642 l 1,0,-1
176 355 m 1,23,-1
 99 241 l 1,24,-1
 235 69 l 1,25,-1
 311 188 l 1,26,-1
 176 355 l 1,23,-1
EndSplineSet
Validated: 1
EndChar

StartChar: ordfeminine
Encoding: 170 170 95
Width: 335
GlyphClass: 1
Flags: W
LayerCount: 2
Fore
SplineSet
277 457 m 1,0,-1
 321 402 l 1,1,-1
 280 388 l 1,2,-1
 228 437 l 1,3,-1
 81 393 l 1,4,-1
 17 567 l 1,5,-1
 124 677 l 1,6,-1
 237 622 l 1,7,-1
 277 457 l 1,0,-1
185 584 m 1,8,-1
 124 602 l 1,9,-1
 84 547 l 1,10,-1
 121 457 l 1,11,-1
 202 492 l 1,12,-1
 185 584 l 1,8,-1
EndSplineSet
Validated: 1
EndChar

StartChar: degree
Encoding: 176 176 96
Width: 317
GlyphClass: 1
Flags: W
LayerCount: 2
Fore
SplineSet
301 553 m 1,0,-1
 231 389 l 1,1,-1
 33 435 l 1,2,-1
 16 593 l 1,3,-1
 167 690 l 1,4,-1
 301 553 l 1,0,-1
67 516 m 1,5,-1
 147 435 l 1,6,-1
 241 469 l 1,7,-1
 211 603 l 1,8,-1
 97 606 l 1,9,-1
 67 516 l 1,5,-1
EndSplineSet
Validated: 1
EndChar

StartChar: exclam
Encoding: 33 33 97
Width: 235
GlyphClass: 1
Flags: W
LayerCount: 2
Fore
SplineSet
82 728 m 1,0,-1
 234 730 l 1,1,-1
 161 83 l 1,2,-1
 80 83 l 1,3,-1
 82 728 l 1,0,-1
67 -23 m 1,4,-1
 19 -151 l 1,5,-1
 179 -167 l 1,6,-1
 167 -26 l 1,7,-1
 67 -23 l 1,4,-1
EndSplineSet
Validated: 9
EndChar

StartChar: quotedbl
Encoding: 34 34 98
Width: 327
GlyphClass: 1
Flags: W
LayerCount: 2
Fore
SplineSet
17 660 m 1,0,-1
 152 676 l 1,1,-1
 85 386 l 1,2,-1
 17 660 l 1,0,-1
208 672 m 1,3,-1
 220 382 l 1,4,-1
 311 676 l 1,5,-1
 208 672 l 1,3,-1
EndSplineSet
Validated: 9
EndChar

StartChar: numbersign
Encoding: 35 35 99
Width: 619
GlyphClass: 1
Flags: W
LayerCount: 2
Fore
SplineSet
179 711 m 1,0,-1
 267 711 l 1,1,-1
 254 512 l 1,2,-1
 399 501 l 1,3,-1
 407 703 l 1,4,-1
 490 692 l 1,5,-1
 482 496 l 1,6,-1
 604 501 l 1,7,-1
 601 403 l 1,8,-1
 474 406 l 1,9,-1
 450 249 l 1,10,-1
 593 241 l 1,11,-1
 566 178 l 1,12,-1
 442 172 l 1,13,-1
 418 24 l 1,14,-1
 323 13 l 1,15,-1
 362 164 l 1,16,-1
 216 180 l 1,17,-1
 193 21 l 1,18,-1
 108 29 l 1,19,-1
 145 178 l 1,20,-1
 15 186 l 1,21,-1
 20 276 l 1,22,-1
 155 268 l 1,23,-1
 193 422 l 1,24,-1
 36 427 l 1,25,-1
 26 520 l 1,26,-1
 190 517 l 1,27,-1
 179 711 l 1,0,-1
264 435 m 1,28,-1
 232 249 l 1,29,-1
 360 239 l 1,30,-1
 381 419 l 1,31,-1
 264 435 l 1,28,-1
EndSplineSet
Validated: 1
EndChar

StartChar: dollar
Encoding: 36 36 100
Width: 573
GlyphClass: 1
Flags: W
LayerCount: 2
Fore
SplineSet
80 704 m 1,0,-1
 496 697 l 1,1,-1
 490 541 l 1,2,-1
 184 566 l 1,3,-1
 158 463 l 1,4,-1
 488 449 l 1,5,-1
 532 -23 l 1,6,-1
 36 7 l 1,7,-1
 59 202 l 1,8,-1
 408 118 l 1,9,-1
 404 301 l 1,10,-1
 66 336 l 1,11,-1
 80 704 l 1,0,-1
390 867 m 1,12,-1
 294 -162 l 1,13,-1
 195 -129 l 1,14,-1
 261 860 l 1,15,-1
 390 867 l 1,12,-1
EndSplineSet
Validated: 5
EndChar

StartChar: percent
Encoding: 37 37 101
Width: 853
GlyphClass: 1
Flags: W
LayerCount: 2
Fore
SplineSet
844 689 m 1,0,-1
 80 -133 l 1,1,-1
 724 787 l 1,2,-1
 844 689 l 1,0,-1
587 227 m 1,3,-1
 796 244 l 1,4,-1
 818 58 l 1,5,6
 760 41 760 41 714 30 c 0,7,8
 694 25 694 25 675.5 20.5 c 128,-1,9
 657 16 657 16 642.5 13.5 c 128,-1,10
 628 11 628 11 618.5 10.5 c 128,-1,11
 609 10 609 10 609 13 c 2,12,-1
 587 227 l 1,3,-1
289 369 m 256,13,14
 288 368 288 368 272 370 c 128,-1,15
 256 372 256 372 232.5 376 c 128,-1,16
 209 380 209 380 182 385 c 128,-1,17
 155 390 155 390 131 394 c 128,-1,18
 107 398 107 398 90 401 c 128,-1,19
 73 404 73 404 71 404 c 256,20,21
 69 404 69 404 71.5 420 c 128,-1,22
 74 436 74 436 79.5 460.5 c 128,-1,23
 85 485 85 485 92 513.5 c 128,-1,24
 99 542 99 542 105 567 c 128,-1,25
 111 592 111 592 115.5 609 c 128,-1,26
 120 626 120 626 120 627 c 256,27,28
 120 628 120 628 134 624.5 c 128,-1,29
 148 621 148 621 169 614.5 c 128,-1,30
 190 608 190 608 215 600 c 128,-1,31
 240 592 240 592 262.5 585 c 128,-1,32
 285 578 285 578 301 573.5 c 128,-1,33
 317 569 317 569 320 569 c 256,34,35
 323 569 323 569 322.5 554.5 c 128,-1,36
 322 540 322 540 319 518 c 128,-1,37
 316 496 316 496 311 470.5 c 128,-1,38
 306 445 306 445 301.5 422.5 c 128,-1,39
 297 400 297 400 293.5 385 c 128,-1,40
 290 370 290 370 289 369 c 256,13,14
EndSplineSet
Validated: 1
EndChar

StartChar: ampersand
Encoding: 38 38 102
Width: 743
GlyphClass: 1
Flags: W
LayerCount: 2
Fore
SplineSet
467 509 m 1,0,-1
 414 428 l 1,1,-1
 330 368 l 1,2,-1
 386 346 l 1,3,-1
 418 276 l 1,4,-1
 549 308 l 1,5,-1
 588 449 l 1,6,-1
 646 316 l 1,7,-1
 460 166 l 1,8,-1
 595 71 l 1,9,-1
 729 145 l 1,10,-1
 658 7 l 1,11,-1
 531 0 l 1,12,-1
 414 88 l 1,13,-1
 326 0 l 1,14,-1
 15 71 l 1,15,-1
 22 198 l 1,16,-1
 125 311 l 1,17,-1
 241 364 l 1,18,-1
 170 488 l 1,19,-1
 220 636 l 1,20,-1
 372 679 l 1,21,-1
 467 509 l 1,0,-1
344 587 m 1,22,-1
 259 555 l 1,23,-1
 280 417 l 1,24,-1
 383 474 l 1,25,-1
 344 587 l 1,22,-1
330 290 m 1,26,-1
 216 293 l 1,27,-1
 138 196 l 1,28,-1
 145 115 l 1,29,-1
 283 91 l 1,30,-1
 383 184 l 1,31,-1
 330 290 l 1,26,-1
EndSplineSet
Validated: 1
EndChar

StartChar: quotesingle
Encoding: 39 39 103
Width: 160
GlyphClass: 1
Flags: W
LayerCount: 2
Fore
SplineSet
12 640 m 1,0,-1
 146 696 l 1,1,-1
 83 378 l 1,2,-1
 12 640 l 1,0,-1
EndSplineSet
Validated: 1
EndChar

StartChar: parenleft
Encoding: 40 40 104
Width: 343
GlyphClass: 1
Flags: W
LayerCount: 2
Fore
SplineSet
321 688 m 1,0,-1
 190 549 l 1,1,-1
 122 402 l 1,2,-1
 110 107 l 1,3,-1
 198 -72 l 1,4,-1
 329 -211 l 1,5,-1
 130 -103 l 1,6,-1
 15 91 l 1,7,-1
 19 449 l 1,8,-1
 130 609 l 1,9,-1
 321 688 l 1,0,-1
EndSplineSet
Validated: 1
EndChar

StartChar: parenright
Encoding: 41 41 105
Width: 335
GlyphClass: 1
Flags: W
LayerCount: 2
Fore
SplineSet
14 720 m 1,0,-1
 172 641 l 1,1,-1
 272 499 l 1,2,-1
 322 89 l 1,3,-1
 228 -66 l 1,4,-1
 20 -196 l 1,5,-1
 149 -43 l 1,6,-1
 231 89 l 1,7,-1
 205 463 l 1,8,-1
 144 580 l 1,9,-1
 14 720 l 1,0,-1
EndSplineSet
Validated: 1
EndChar

StartChar: asterisk
Encoding: 42 42 106
Width: 390
GlyphClass: 1
Flags: W
LayerCount: 2
Fore
SplineSet
162 541 m 1,0,-1
 212 398 l 1,1,-1
 252 573 l 1,2,-1
 347 512 l 1,3,-1
 270 382 l 1,4,-1
 374 294 l 1,5,-1
 307 212 l 1,6,-1
 239 297 l 1,7,-1
 260 167 l 1,8,-1
 146 167 l 1,9,-1
 172 308 l 1,10,-1
 87 226 l 1,11,-1
 13 324 l 1,12,-1
 140 366 l 1,13,-1
 53 477 l 1,14,-1
 162 541 l 1,0,-1
EndSplineSet
Validated: 1
EndChar

StartChar: plus
Encoding: 43 43 107
Width: 569
GlyphClass: 1
Flags: W
LayerCount: 2
Fore
SplineSet
11 439 m 1,0,-1
 214 439 l 1,1,-1
 220 648 l 1,2,-1
 366 633 l 1,3,-1
 363 439 l 1,4,-1
 557 415 l 1,5,-1
 554 306 l 1,6,-1
 360 300 l 1,7,-1
 354 103 l 1,8,-1
 211 94 l 1,9,-1
 233 306 l 1,10,-1
 29 294 l 1,11,-1
 11 439 l 1,0,-1
EndSplineSet
Validated: 1
EndChar

StartChar: hyphen
Encoding: 45 45 108
Width: 349
GlyphClass: 1
Flags: W
LayerCount: 2
Fore
SplineSet
18 318 m 1,0,-1
 329 309 l 1,1,-1
 304 210 l 1,2,-1
 53 223 l 1,3,-1
 18 318 l 1,0,-1
EndSplineSet
Validated: 1
EndChar

StartChar: period
Encoding: 46 46 109
Width: 187
GlyphClass: 1
Flags: W
LayerCount: 2
Fore
SplineSet
159 99 m 1,0,-1
 166 -28 l 1,1,-1
 25 -21 l 1,2,-1
 21 113 l 1,3,-1
 159 99 l 1,0,-1
EndSplineSet
Validated: 1
EndChar

StartChar: slash
Encoding: 47 47 110
Width: 385
GlyphClass: 1
Flags: W
LayerCount: 2
Fore
SplineSet
375 685 m 1,0,-1
 116 -34 l 1,1,-1
 11 7 l 1,2,-1
 247 730 l 1,3,-1
 375 685 l 1,0,-1
EndSplineSet
Validated: 1
EndChar

StartChar: comma
Encoding: 44 44 111
Width: 230
GlyphClass: 1
Flags: W
LayerCount: 2
Fore
SplineSet
19 111 m 1,0,-1
 182 123 l 1,1,-1
 213 -36 l 1,2,-1
 134 -155 l 1,3,-1
 15 -88 l 1,4,-1
 110 -88 l 1,5,-1
 126 -20 l 1,6,-1
 35 -24 l 1,7,-1
 19 111 l 1,0,-1
EndSplineSet
Validated: 1
EndChar

StartChar: fraction
Encoding: 25 25 112
Width: 479
GlyphClass: 1
Flags: W
LayerCount: 2
Fore
SplineSet
317 374 m 1,0,-1
 7 -5 l 1,1,-1
 236 397 l 1,2,-1
 472 675 l 1,3,-1
 317 374 l 1,0,-1
EndSplineSet
Validated: 1
EndChar

StartChar: ring
Encoding: 8 8 113
Width: 236
GlyphClass: 1
Flags: W
LayerCount: 2
Fore
SplineSet
218 642 m 1,0,-1
 205 514 l 1,1,-1
 78 496 l 1,2,-1
 14 618 l 1,3,-1
 128 713 l 1,4,-1
 218 642 l 1,0,-1
133 660 m 1,5,-1
 78 610 l 1,6,-1
 104 533 l 1,7,-1
 179 589 l 1,8,-1
 133 660 l 1,5,-1
EndSplineSet
Validated: 1
EndChar

StartChar: Agrave
Encoding: 192 192 114
Width: 538
GlyphClass: 1
Flags: W
LayerCount: 2
Fore
SplineSet
19 0 m 1,0,-1
 46 696 l 1,1,-1
 480 671 l 1,2,-1
 522 -4 l 1,3,-1
 374 -2 l 1,4,-1
 356 261 l 1,5,-1
 179 275 l 1,6,-1
 166 -4 l 1,7,-1
 19 0 l 1,0,-1
185 410 m 1,8,-1
 347 376 l 1,9,-1
 335 554 l 1,10,-1
 193 588 l 1,11,-1
 185 410 l 1,8,-1
103 888 m 1,12,-1
 222 935 l 1,13,-1
 297 747 l 1,14,-1
 193 739 l 1,15,-1
 103 888 l 1,12,-1
EndSplineSet
Validated: 1
EndChar

StartChar: Aacute
Encoding: 193 193 115
Width: 540
GlyphClass: 1
Flags: W
LayerCount: 2
Fore
SplineSet
18 0 m 1,0,-1
 45 696 l 1,1,-1
 479 671 l 1,2,-1
 521 -4 l 1,3,-1
 373 -2 l 1,4,-1
 355 261 l 1,5,-1
 178 275 l 1,6,-1
 165 -4 l 1,7,-1
 18 0 l 1,0,-1
184 410 m 1,8,-1
 346 376 l 1,9,-1
 334 554 l 1,10,-1
 192 588 l 1,11,-1
 184 410 l 1,8,-1
414 850 m 1,12,-1
 492 767 l 1,13,-1
 142 729 l 1,14,-1
 414 850 l 1,12,-1
EndSplineSet
Validated: 1
EndChar

StartChar: Acircumflex
Encoding: 194 194 116
Width: 539
GlyphClass: 1
Flags: W
LayerCount: 2
Fore
SplineSet
18 0 m 1,0,-1
 29 697 l 1,1,-1
 463 682 l 1,2,-1
 521 8 l 1,3,-1
 373 6 l 1,4,-1
 349 269 l 1,5,-1
 172 279 l 1,6,-1
 165 -1 l 1,7,-1
 18 0 l 1,0,-1
175 414 m 1,8,-1
 337 384 l 1,9,-1
 321 561 l 1,10,-1
 178 592 l 1,11,-1
 175 414 l 1,8,-1
259 918 m 1,12,-1
 454 737 l 1,13,-1
 249 827 l 1,14,-1
 63 740 l 1,15,-1
 259 918 l 1,12,-1
EndSplineSet
Validated: 1
EndChar

StartChar: Atilde
Encoding: 195 195 117
Width: 542
GlyphClass: 1
Flags: W
LayerCount: 2
Fore
SplineSet
20 -20 m 1,0,-1
 47 676 l 1,1,-1
 481 651 l 1,2,-1
 523 -24 l 1,3,-1
 375 -22 l 1,4,-1
 357 241 l 1,5,-1
 180 255 l 1,6,-1
 167 -24 l 1,7,-1
 20 -20 l 1,0,-1
186 390 m 1,8,-1
 348 356 l 1,9,-1
 336 534 l 1,10,-1
 194 568 l 1,11,-1
 186 390 l 1,8,-1
94 892 m 1,12,-1
 271 857 l 1,13,-1
 299 775 l 1,14,-1
 391 768 l 1,15,-1
 419 836 l 1,16,-1
 508 839 l 1,17,-1
 451 705 l 1,18,-1
 264 708 l 1,19,-1
 228 797 l 1,20,-1
 161 818 l 1,21,-1
 140 737 l 1,22,-1
 45 747 l 1,23,-1
 94 892 l 1,12,-1
EndSplineSet
Validated: 1
EndChar

StartChar: Adieresis
Encoding: 196 196 118
Width: 541
GlyphClass: 1
Flags: W
LayerCount: 2
Fore
SplineSet
19 0 m 1,0,-1
 46 696 l 1,1,-1
 480 671 l 1,2,-1
 522 -4 l 1,3,-1
 374 -2 l 1,4,-1
 356 261 l 1,5,-1
 179 275 l 1,6,-1
 166 -4 l 1,7,-1
 19 0 l 1,0,-1
185 410 m 1,8,-1
 347 376 l 1,9,-1
 335 554 l 1,10,-1
 193 588 l 1,11,-1
 185 410 l 1,8,-1
193 875 m 1,12,-1
 198 764 l 1,13,-1
 90 764 l 1,14,-1
 94 859 l 1,15,-1
 193 875 l 1,12,-1
325 851 m 1,16,-1
 444 867 l 1,17,-1
 452 744 l 1,18,-1
 341 744 l 1,19,-1
 325 851 l 1,16,-1
EndSplineSet
Validated: 1
EndChar

StartChar: Aring
Encoding: 197 197 119
Width: 539
GlyphClass: 1
Flags: W
LayerCount: 2
Fore
SplineSet
19 0 m 1,0,-1
 46 696 l 1,1,-1
 480 671 l 1,2,-1
 522 -4 l 1,3,-1
 374 -2 l 1,4,-1
 356 261 l 1,5,-1
 179 275 l 1,6,-1
 166 -4 l 1,7,-1
 19 0 l 1,0,-1
185 410 m 1,8,-1
 347 376 l 1,9,-1
 335 554 l 1,10,-1
 193 588 l 1,11,-1
 185 410 l 1,8,-1
369 848 m 1,12,-1
 252 734 l 1,13,-1
 106 848 l 1,14,-1
 244 947 l 1,15,-1
 369 848 l 1,12,-1
247 888 m 1,16,-1
 189 848 l 1,17,-1
 255 801 l 1,18,-1
 297 838 l 1,19,-1
 247 888 l 1,16,-1
EndSplineSet
Validated: 1
EndChar

StartChar: Ccedilla
Encoding: 199 199 120
Width: 550
GlyphClass: 1
Flags: W
LayerCount: 2
Fore
SplineSet
17 515 m 1,0,-1
 179 709 l 1,1,-1
 434 706 l 1,2,-1
 535 492 l 1,3,-1
 350 434 l 1,4,-1
 278 529 l 1,5,-1
 159 454 l 1,6,-1
 168 142 l 1,7,-1
 333 58 l 1,8,-1
 408 182 l 1,9,-1
 529 153 l 1,10,-1
 437 -40 l 1,11,-1
 70 26 l 1,12,-1
 17 515 l 1,0,-1
165 -33 m 1,13,-1
 334 -53 l 1,14,-1
 337 -252 l 1,15,-1
 157 -249 l 1,16,-1
 118 -122 l 1,17,-1
 182 -185 l 1,18,-1
 276 -183 l 1,19,-1
 276 -113 l 1,20,-1
 185 -102 l 1,21,-1
 165 -33 l 1,13,-1
EndSplineSet
Validated: 1
EndChar

StartChar: Egrave
Encoding: 200 200 121
Width: 517
GlyphClass: 1
Flags: W
LayerCount: 2
Fore
SplineSet
474 716 m 1,0,-1
 487 518 l 1,1,-1
 173 537 l 1,2,-1
 190 431 l 1,3,-1
 339 428 l 1,4,-1
 334 308 l 1,5,-1
 185 320 l 1,6,-1
 204 157 l 1,7,-1
 503 191 l 1,8,-1
 469 2 l 1,9,-1
 67 2 l 1,10,-1
 19 692 l 1,11,-1
 474 716 l 1,0,-1
25 767 m 1,12,-1
 42 868 l 1,13,-1
 407 752 l 1,14,-1
 25 767 l 1,12,-1
EndSplineSet
Validated: 1
EndChar

StartChar: Eacute
Encoding: 201 201 122
Width: 519
GlyphClass: 1
Flags: W
LayerCount: 2
Fore
SplineSet
471 716 m 1,0,-1
 484 518 l 1,1,-1
 170 537 l 1,2,-1
 187 431 l 1,3,-1
 336 428 l 1,4,-1
 331 308 l 1,5,-1
 182 320 l 1,6,-1
 201 157 l 1,7,-1
 500 191 l 1,8,-1
 466 2 l 1,9,-1
 64 2 l 1,10,-1
 16 692 l 1,11,-1
 471 716 l 1,0,-1
196 800 m 1,12,-1
 305 824 l 1,13,-1
 423 909 l 1,14,-1
 454 782 l 1,15,-1
 99 742 l 1,16,-1
 196 800 l 1,12,-1
EndSplineSet
Validated: 1
EndChar

StartChar: Ecircumflex
Encoding: 202 202 123
Width: 519
GlyphClass: 1
Flags: W
LayerCount: 2
Fore
SplineSet
473 716 m 1,0,-1
 486 518 l 1,1,-1
 172 537 l 1,2,-1
 189 431 l 1,3,-1
 338 428 l 1,4,-1
 333 308 l 1,5,-1
 184 320 l 1,6,-1
 203 157 l 1,7,-1
 502 191 l 1,8,-1
 468 2 l 1,9,-1
 66 2 l 1,10,-1
 18 692 l 1,11,-1
 473 716 l 1,0,-1
259 935 m 1,12,-1
 454 754 l 1,13,-1
 256 843 l 1,14,-1
 53 729 l 1,15,-1
 259 935 l 1,12,-1
EndSplineSet
Validated: 1
EndChar

StartChar: Edieresis
Encoding: 203 203 124
Width: 521
GlyphClass: 1
Flags: W
LayerCount: 2
Fore
SplineSet
474 716 m 1,0,-1
 487 518 l 1,1,-1
 173 537 l 1,2,-1
 190 431 l 1,3,-1
 339 428 l 1,4,-1
 334 308 l 1,5,-1
 185 320 l 1,6,-1
 204 157 l 1,7,-1
 503 191 l 1,8,-1
 469 2 l 1,9,-1
 67 2 l 1,10,-1
 19 692 l 1,11,-1
 474 716 l 1,0,-1
202 834 m 1,12,-1
 216 753 l 1,13,-1
 85 739 l 1,14,-1
 89 827 l 1,15,-1
 202 834 l 1,12,-1
439 863 m 1,16,-1
 435 764 l 1,17,-1
 301 767 l 1,18,-1
 291 845 l 1,19,-1
 439 863 l 1,16,-1
EndSplineSet
Validated: 1
EndChar

StartChar: Igrave
Encoding: 204 204 125
Width: 451
GlyphClass: 1
Flags: W
LayerCount: 2
Fore
SplineSet
23 663 m 1,0,-1
 426 696 l 1,1,-1
 429 542 l 1,2,-1
 318 537 l 1,3,-1
 306 94 l 1,4,-1
 438 99 l 1,5,-1
 424 -2 l 1,6,-1
 28 2 l 1,7,-1
 16 101 l 1,8,-1
 153 92 l 1,9,-1
 197 566 l 1,10,-1
 33 545 l 1,11,-1
 23 663 l 1,0,-1
42 737 m 1,12,-1
 50 831 l 1,13,-1
 327 745 l 1,14,-1
 42 737 l 1,12,-1
EndSplineSet
Validated: 1
EndChar

StartChar: Iacute
Encoding: 205 205 126
Width: 451
GlyphClass: 1
Flags: W
LayerCount: 2
Fore
SplineSet
19 663 m 1,0,-1
 422 696 l 1,1,-1
 425 542 l 1,2,-1
 314 537 l 1,3,-1
 302 94 l 1,4,-1
 434 99 l 1,5,-1
 420 -2 l 1,6,-1
 24 2 l 1,7,-1
 12 101 l 1,8,-1
 149 92 l 1,9,-1
 193 566 l 1,10,-1
 29 545 l 1,11,-1
 19 663 l 1,0,-1
268 899 m 1,12,-1
 400 899 l 1,13,-1
 233 724 l 1,14,-1
 268 899 l 1,12,-1
EndSplineSet
Validated: 1
EndChar

StartChar: Icircumflex
Encoding: 206 206 127
Width: 452
GlyphClass: 1
Flags: W
LayerCount: 2
Fore
SplineSet
22 663 m 1,0,-1
 425 696 l 1,1,-1
 428 542 l 1,2,-1
 317 537 l 1,3,-1
 305 94 l 1,4,-1
 437 99 l 1,5,-1
 423 -2 l 1,6,-1
 27 2 l 1,7,-1
 15 101 l 1,8,-1
 152 92 l 1,9,-1
 196 566 l 1,10,-1
 32 545 l 1,11,-1
 22 663 l 1,0,-1
220 976 m 1,12,-1
 408 742 l 1,13,-1
 212 867 l 1,14,-1
 26 703 l 1,15,-1
 220 976 l 1,12,-1
EndSplineSet
Validated: 1
EndChar

StartChar: Idieresis
Encoding: 207 207 128
Width: 454
GlyphClass: 1
Flags: W
LayerCount: 2
Fore
SplineSet
23 663 m 1,0,-1
 426 696 l 1,1,-1
 429 542 l 1,2,-1
 318 537 l 1,3,-1
 306 94 l 1,4,-1
 438 99 l 1,5,-1
 424 -2 l 1,6,-1
 28 2 l 1,7,-1
 16 101 l 1,8,-1
 153 92 l 1,9,-1
 197 566 l 1,10,-1
 33 545 l 1,11,-1
 23 663 l 1,0,-1
145 825 m 1,12,-1
 148 728 l 1,13,-1
 48 730 l 1,14,-1
 73 822 l 1,15,-1
 145 825 l 1,12,-1
352 838 m 1,16,-1
 372 739 l 1,17,-1
 264 730 l 1,18,-1
 283 833 l 1,19,-1
 352 838 l 1,16,-1
EndSplineSet
Validated: 1
EndChar

StartChar: Eth
Encoding: 208 208 129
Width: 564
GlyphClass: 1
Flags: W
LayerCount: 2
Fore
SplineSet
517 571 m 1,0,-1
 546 75 l 1,1,-1
 98 2 l 1,2,-1
 129 696 l 1,3,-1
 517 571 l 1,0,-1
242 499 m 1,4,-1
 221 137 l 1,5,-1
 438 188 l 1,6,-1
 418 413 l 1,7,-1
 242 499 l 1,4,-1
16 376 m 1,8,-1
 299 350 l 1,9,-1
 302 272 l 1,10,-1
 27 269 l 1,11,-1
 16 376 l 1,8,-1
EndSplineSet
Validated: 5
EndChar

StartChar: Ntilde
Encoding: 209 209 130
Width: 533
GlyphClass: 1
Flags: W
LayerCount: 2
Fore
SplineSet
20 0 m 1,0,-1
 37 718 l 1,1,-1
 215 718 l 1,2,-1
 362 268 l 1,3,-1
 383 748 l 1,4,-1
 512 740 l 1,5,-1
 488 27 l 1,6,-1
 304 -13 l 1,7,-1
 182 443 l 1,8,-1
 187 -19 l 1,9,-1
 20 0 l 1,0,-1
68 923 m 1,10,-1
 176 980 l 1,11,-1
 424 865 l 1,12,-1
 503 964 l 1,13,-1
 503 799 l 1,14,-1
 297 795 l 1,15,-1
 182 894 l 1,16,-1
 141 802 l 1,17,-1
 52 805 l 1,18,-1
 68 923 l 1,10,-1
EndSplineSet
Validated: 1
EndChar

StartChar: Oacute
Encoding: 211 211 131
Width: 535
GlyphClass: 1
Flags: W
LayerCount: 2
Fore
SplineSet
496 680 m 1,0,-1
 515 -2 l 1,1,-1
 16 -5 l 1,2,-1
 50 672 l 1,3,-1
 496 680 l 1,0,-1
192 138 m 1,4,-1
 382 140 l 1,5,-1
 363 525 l 1,6,-1
 197 499 l 1,7,-1
 192 138 l 1,4,-1
370 878 m 1,8,-1
 464 794 l 1,9,-1
 260 727 l 1,10,-1
 370 878 l 1,8,-1
EndSplineSet
Validated: 1
EndChar

StartChar: Ocircumflex
Encoding: 212 212 132
Width: 537
GlyphClass: 1
Flags: W
LayerCount: 2
Fore
SplineSet
498 680 m 1,0,-1
 517 -2 l 1,1,-1
 18 -5 l 1,2,-1
 52 672 l 1,3,-1
 498 680 l 1,0,-1
194 138 m 1,4,-1
 384 140 l 1,5,-1
 365 525 l 1,6,-1
 199 499 l 1,7,-1
 194 138 l 1,4,-1
132 806 m 1,8,-1
 309 905 l 1,9,-1
 471 788 l 1,10,-1
 447 728 l 1,11,-1
 295 820 l 1,12,-1
 114 728 l 1,13,-1
 132 806 l 1,8,-1
EndSplineSet
Validated: 1
EndChar

StartChar: Otilde
Encoding: 213 213 133
Width: 539
GlyphClass: 1
Flags: W
LayerCount: 2
Fore
SplineSet
499 680 m 1,0,-1
 518 -2 l 1,1,-1
 19 -5 l 1,2,-1
 53 672 l 1,3,-1
 499 680 l 1,0,-1
195 138 m 1,4,-1
 385 140 l 1,5,-1
 366 525 l 1,6,-1
 200 499 l 1,7,-1
 195 138 l 1,4,-1
115 827 m 1,8,-1
 239 891 l 1,9,-1
 404 794 l 1,10,-1
 478 895 l 1,11,-1
 497 752 l 1,12,-1
 329 726 l 1,13,-1
 216 805 l 1,14,-1
 89 719 l 1,15,-1
 115 827 l 1,8,-1
EndSplineSet
Validated: 1
EndChar

StartChar: Odieresis
Encoding: 214 214 134
Width: 538
GlyphClass: 1
Flags: W
LayerCount: 2
Fore
SplineSet
499 680 m 1,0,-1
 518 -2 l 1,1,-1
 19 -5 l 1,2,-1
 53 672 l 1,3,-1
 499 680 l 1,0,-1
195 138 m 1,4,-1
 385 140 l 1,5,-1
 366 525 l 1,6,-1
 200 499 l 1,7,-1
 195 138 l 1,4,-1
199 859 m 1,8,-1
 203 752 l 1,9,-1
 103 752 l 1,10,-1
 111 847 l 1,11,-1
 199 859 l 1,8,-1
461 859 m 1,12,-1
 445 744 l 1,13,-1
 322 744 l 1,14,-1
 338 859 l 1,15,-1
 461 859 l 1,12,-1
EndSplineSet
Validated: 1
EndChar

StartChar: multiply
Encoding: 215 215 135
Width: 438
GlyphClass: 1
Flags: W
LayerCount: 2
Fore
SplineSet
16 501 m 1,0,-1
 204 341 l 1,1,-1
 418 524 l 1,2,-1
 280 293 l 1,3,-1
 408 109 l 1,4,-1
 204 255 l 1,5,-1
 16 122 l 1,6,-1
 133 300 l 1,7,-1
 16 501 l 1,0,-1
EndSplineSet
Validated: 1
EndChar

StartChar: Oslash
Encoding: 216 216 136
Width: 773
GlyphClass: 1
Flags: W
LayerCount: 2
Fore
SplineSet
631 680 m 1,0,-1
 650 -2 l 1,1,-1
 151 -5 l 1,2,-1
 134 719 l 1,3,-1
 631 680 l 1,0,-1
327 138 m 1,4,-1
 517 140 l 1,5,-1
 498 525 l 1,6,-1
 281 546 l 1,7,-1
 327 138 l 1,4,-1
754 734 m 1,8,-1
 420 207 l 1,9,-1
 64 -130 l 1,10,-1
 19 -74 l 1,11,-1
 393 430 l 1,12,-1
 600 769 l 1,13,-1
 754 734 l 1,8,-1
EndSplineSet
Validated: 5
EndChar

StartChar: Ugrave
Encoding: 217 217 137
Width: 540
GlyphClass: 1
Flags: W
LayerCount: 2
Fore
SplineSet
19 673 m 1,0,-1
 186 703 l 1,1,-1
 221 175 l 1,2,-1
 385 159 l 1,3,-1
 401 666 l 1,4,-1
 523 687 l 1,5,-1
 515 3 l 1,6,-1
 48 -8 l 1,7,-1
 19 673 l 1,0,-1
106 822 m 1,8,-1
 153 949 l 1,9,-1
 427 766 l 1,10,-1
 106 822 l 1,8,-1
EndSplineSet
Validated: 1
EndChar

StartChar: Uacute
Encoding: 218 218 138
Width: 554
GlyphClass: 1
Flags: W
LayerCount: 2
Fore
SplineSet
16 673 m 1,0,-1
 183 703 l 1,1,-1
 218 175 l 1,2,-1
 382 159 l 1,3,-1
 398 666 l 1,4,-1
 520 687 l 1,5,-1
 512 3 l 1,6,-1
 45 -8 l 1,7,-1
 16 673 l 1,0,-1
288 735 m 1,8,-1
 429 902 l 1,9,-1
 534 833 l 1,10,-1
 314 668 l 1,11,-1
 288 735 l 1,8,-1
EndSplineSet
Validated: 1
EndChar

StartChar: Ucircumflex
Encoding: 219 219 139
Width: 541
GlyphClass: 1
Flags: W
LayerCount: 2
Fore
SplineSet
18 673 m 1,0,-1
 185 703 l 1,1,-1
 220 175 l 1,2,-1
 384 159 l 1,3,-1
 400 666 l 1,4,-1
 522 687 l 1,5,-1
 514 3 l 1,6,-1
 47 -8 l 1,7,-1
 18 673 l 1,0,-1
37 783 m 1,8,-1
 295 964 l 1,9,-1
 479 751 l 1,10,-1
 387 706 l 1,11,-1
 291 881 l 1,12,-1
 186 745 l 1,13,-1
 37 783 l 1,8,-1
EndSplineSet
Validated: 1
EndChar

StartChar: Udieresis
Encoding: 220 220 140
Width: 542
GlyphClass: 1
Flags: W
LayerCount: 2
Fore
SplineSet
19 673 m 1,0,-1
 186 703 l 1,1,-1
 221 175 l 1,2,-1
 385 159 l 1,3,-1
 401 666 l 1,4,-1
 523 687 l 1,5,-1
 515 3 l 1,6,-1
 48 -8 l 1,7,-1
 19 673 l 1,0,-1
171 871 m 1,8,-1
 188 780 l 1,9,-1
 71 780 l 1,10,-1
 84 878 l 1,11,-1
 171 871 l 1,8,-1
449 864 m 1,12,-1
 446 784 l 1,13,-1
 335 780 l 1,14,-1
 352 871 l 1,15,-1
 449 864 l 1,12,-1
EndSplineSet
Validated: 1
EndChar

StartChar: Yacute
Encoding: 221 221 141
Width: 612
GlyphClass: 1
Flags: W
LayerCount: 2
Fore
SplineSet
18 618 m 1,0,-1
 266 694 l 1,1,-1
 351 464 l 1,2,-1
 394 661 l 1,3,-1
 594 685 l 1,4,-1
 430 376 l 1,5,-1
 445 -33 l 1,6,-1
 236 12 l 1,7,-1
 303 358 l 1,8,-1
 18 618 l 1,0,-1
430 905 m 1,9,-1
 589 898 l 1,10,-1
 370 749 l 1,11,-1
 430 905 l 1,9,-1
EndSplineSet
Validated: 1
EndChar

StartChar: agrave
Encoding: 224 224 142
Width: 372
GlyphClass: 1
Flags: W
LayerCount: 2
Fore
SplineSet
151 457 m 1,0,-1
 356 364 l 1,1,-1
 327 -26 l 1,2,-1
 18 12 l 1,3,-1
 70 246 l 1,4,-1
 258 318 l 1,5,-1
 128 364 l 1,6,-1
 108 292 l 1,7,-1
 15 318 l 1,8,-1
 151 457 l 1,0,-1
125 72 m 1,9,-1
 252 49 l 1,10,-1
 252 220 l 1,11,-1
 142 168 l 1,12,-1
 125 72 l 1,9,-1
96 588 m 1,13,-1
 152 674 l 1,14,-1
 336 505 l 1,15,-1
 96 588 l 1,13,-1
EndSplineSet
Validated: 1
EndChar

StartChar: aacute
Encoding: 225 225 143
Width: 519
GlyphClass: 1
Flags: W
LayerCount: 2
Fore
SplineSet
155 457 m 1,0,-1
 360 364 l 1,1,-1
 331 -26 l 1,2,-1
 22 12 l 1,3,-1
 74 246 l 1,4,-1
 262 318 l 1,5,-1
 132 364 l 1,6,-1
 112 292 l 1,7,-1
 19 318 l 1,8,-1
 155 457 l 1,0,-1
129 72 m 1,9,-1
 256 49 l 1,10,-1
 256 220 l 1,11,-1
 146 168 l 1,12,-1
 129 72 l 1,9,-1
401 609 m 1,13,-1
 500 561 l 1,14,-1
 313 461 l 1,15,-1
 401 609 l 1,13,-1
EndSplineSet
Validated: 1
EndChar

StartChar: acircumflex
Encoding: 226 226 144
Width: 372
GlyphClass: 1
Flags: W
LayerCount: 2
Fore
SplineSet
150 457 m 1,0,-1
 355 364 l 1,1,-1
 326 -26 l 1,2,-1
 17 12 l 1,3,-1
 69 246 l 1,4,-1
 257 318 l 1,5,-1
 127 364 l 1,6,-1
 107 292 l 1,7,-1
 14 318 l 1,8,-1
 150 457 l 1,0,-1
124 72 m 1,9,-1
 251 49 l 1,10,-1
 251 220 l 1,11,-1
 141 168 l 1,12,-1
 124 72 l 1,9,-1
210 687 m 1,13,-1
 338 440 l 1,14,-1
 203 591 l 1,15,-1
 40 489 l 1,16,-1
 210 687 l 1,13,-1
EndSplineSet
Validated: 1
EndChar

StartChar: atilde
Encoding: 227 227 145
Width: 408
GlyphClass: 1
Flags: W
LayerCount: 2
Fore
SplineSet
153 457 m 1,0,-1
 358 364 l 1,1,-1
 329 -26 l 1,2,-1
 20 12 l 1,3,-1
 72 246 l 1,4,-1
 260 318 l 1,5,-1
 130 364 l 1,6,-1
 110 292 l 1,7,-1
 17 318 l 1,8,-1
 153 457 l 1,0,-1
127 72 m 1,9,-1
 254 49 l 1,10,-1
 254 220 l 1,11,-1
 144 168 l 1,12,-1
 127 72 l 1,9,-1
149 686 m 1,13,-1
 315 528 l 1,14,-1
 393 562 l 1,15,-1
 323 445 l 1,16,-1
 135 600 l 1,17,-1
 19 481 l 1,18,-1
 149 686 l 1,13,-1
EndSplineSet
Validated: 1
EndChar

StartChar: adieresis
Encoding: 228 228 146
Width: 393
GlyphClass: 1
Flags: W
LayerCount: 2
Fore
SplineSet
156 457 m 1,0,-1
 361 364 l 1,1,-1
 332 -26 l 1,2,-1
 23 12 l 1,3,-1
 75 246 l 1,4,-1
 263 318 l 1,5,-1
 133 364 l 1,6,-1
 113 292 l 1,7,-1
 20 318 l 1,8,-1
 156 457 l 1,0,-1
130 72 m 1,9,-1
 257 49 l 1,10,-1
 257 220 l 1,11,-1
 147 168 l 1,12,-1
 130 72 l 1,9,-1
133 602 m 1,13,-1
 127 526 l 1,14,-1
 49 547 l 1,15,-1
 69 605 l 1,16,-1
 133 602 l 1,13,-1
373 552 m 1,17,-1
 347 457 l 1,18,-1
 260 498 l 1,19,-1
 278 564 l 1,20,-1
 373 552 l 1,17,-1
EndSplineSet
Validated: 1
EndChar

StartChar: aring
Encoding: 229 229 147
Width: 375
GlyphClass: 1
Flags: W
LayerCount: 2
Fore
SplineSet
150 457 m 1,0,-1
 355 364 l 1,1,-1
 326 -26 l 1,2,-1
 17 12 l 1,3,-1
 69 246 l 1,4,-1
 257 318 l 1,5,-1
 127 364 l 1,6,-1
 107 292 l 1,7,-1
 14 318 l 1,8,-1
 150 457 l 1,0,-1
124 72 m 1,9,-1
 251 49 l 1,10,-1
 251 220 l 1,11,-1
 141 168 l 1,12,-1
 124 72 l 1,9,-1
349 655 m 1,13,-1
 315 485 l 1,14,-1
 106 530 l 1,15,-1
 179 676 l 1,16,-1
 349 655 l 1,13,-1
209 624 m 1,17,-1
 173 555 l 1,18,-1
 282 539 l 1,19,-1
 288 609 l 1,20,-1
 209 624 l 1,17,-1
EndSplineSet
Validated: 1
EndChar

StartChar: ccedilla
Encoding: 231 231 148
Width: 378
GlyphClass: 1
Flags: W
LayerCount: 2
Fore
SplineSet
356 347 m 1,0,-1
 140 312 l 1,1,-1
 137 172 l 1,2,-1
 363 156 l 1,3,-1
 302 3 l 1,4,-1
 16 64 l 1,5,-1
 57 420 l 1,6,-1
 328 493 l 1,7,-1
 356 347 l 1,0,-1
95 -83 m 1,8,-1
 130 67 l 1,9,-1
 206 51 l 1,10,-1
 168 -83 l 1,11,-1
 95 -83 l 1,8,-1
EndSplineSet
Validated: 5
EndChar

StartChar: egrave
Encoding: 232 232 149
Width: 357
GlyphClass: 1
Flags: W
LayerCount: 2
Fore
SplineSet
25 420 m 1,0,-1
 277 468 l 1,1,-1
 343 193 l 1,2,-1
 109 178 l 1,3,-1
 129 84 l 1,4,-1
 335 132 l 1,5,-1
 295 0 l 1,6,-1
 20 13 l 1,7,-1
 25 420 l 1,0,-1
101 359 m 1,8,-1
 97 281 l 1,9,-1
 249 283 l 1,10,-1
 218 374 l 1,11,-1
 101 359 l 1,8,-1
152 482 m 1,12,-1
 52 553 l 1,13,-1
 95 616 l 1,14,-1
 196 499 l 1,15,-1
 152 482 l 1,12,-1
EndSplineSet
Validated: 1
EndChar

StartChar: eacute
Encoding: 233 233 150
Width: 357
GlyphClass: 1
Flags: W
LayerCount: 2
Fore
SplineSet
21 420 m 1,0,-1
 273 468 l 1,1,-1
 339 193 l 1,2,-1
 105 178 l 1,3,-1
 125 84 l 1,4,-1
 331 132 l 1,5,-1
 291 0 l 1,6,-1
 16 13 l 1,7,-1
 21 420 l 1,0,-1
97 359 m 1,8,-1
 93 281 l 1,9,-1
 245 283 l 1,10,-1
 214 374 l 1,11,-1
 97 359 l 1,8,-1
129 527 m 1,12,-1
 256 636 l 1,13,-1
 316 583 l 1,14,-1
 147 484 l 1,15,-1
 129 527 l 1,12,-1
EndSplineSet
Validated: 1
EndChar

StartChar: ecircumflex
Encoding: 234 234 151
Width: 360
GlyphClass: 1
Flags: W
LayerCount: 2
Fore
SplineSet
26 420 m 1,0,-1
 278 468 l 1,1,-1
 344 193 l 1,2,-1
 110 178 l 1,3,-1
 130 84 l 1,4,-1
 336 132 l 1,5,-1
 296 0 l 1,6,-1
 21 13 l 1,7,-1
 26 420 l 1,0,-1
102 359 m 1,8,-1
 98 281 l 1,9,-1
 250 283 l 1,10,-1
 219 374 l 1,11,-1
 102 359 l 1,8,-1
26 475 m 1,12,-1
 23 558 l 1,13,-1
 139 636 l 1,14,-1
 266 580 l 1,15,-1
 262 505 l 1,16,-1
 146 539 l 1,17,-1
 26 475 l 1,12,-1
EndSplineSet
Validated: 1
EndChar

StartChar: edieresis
Encoding: 235 235 152
Width: 361
GlyphClass: 1
Flags: W
LayerCount: 2
Fore
SplineSet
26 420 m 1,0,-1
 278 468 l 1,1,-1
 344 193 l 1,2,-1
 110 178 l 1,3,-1
 130 84 l 1,4,-1
 336 132 l 1,5,-1
 296 0 l 1,6,-1
 21 13 l 1,7,-1
 26 420 l 1,0,-1
102 359 m 1,8,-1
 98 281 l 1,9,-1
 250 283 l 1,10,-1
 219 374 l 1,11,-1
 102 359 l 1,8,-1
100 573 m 1,12,-1
 108 497 l 1,13,-1
 25 477 l 1,14,-1
 21 561 l 1,15,-1
 100 573 l 1,12,-1
271 605 m 1,16,-1
 283 529 l 1,17,-1
 192 501 l 1,18,-1
 184 593 l 1,19,-1
 271 605 l 1,16,-1
EndSplineSet
Validated: 1
EndChar

StartChar: igrave
Encoding: 236 236 153
Width: 212
GlyphClass: 1
Flags: W
LayerCount: 2
Fore
SplineSet
59 654 m 1,0,-1
 145 537 l 1,1,-1
 89 527 l 1,2,-1
 13 608 l 1,3,-1
 59 654 l 1,0,-1
76 460 m 1,4,-1
 152 466 l 1,5,-1
 198 14 l 1,6,-1
 79 -38 l 1,7,-1
 76 460 l 1,4,-1
EndSplineSet
Validated: 1
EndChar

StartChar: iacute
Encoding: 237 237 154
Width: 172
GlyphClass: 1
Flags: W
LayerCount: 2
Fore
SplineSet
94 687 m 1,0,-1
 157 668 l 1,1,-1
 94 517 l 1,2,-1
 27 522 l 1,3,-1
 94 687 l 1,0,-1
18 460 m 1,4,-1
 94 466 l 1,5,-1
 140 14 l 1,6,-1
 21 -38 l 1,7,-1
 18 460 l 1,4,-1
EndSplineSet
Validated: 1
EndChar

StartChar: icircumflex
Encoding: 238 238 155
Width: 212
GlyphClass: 1
Flags: W
LayerCount: 2
Fore
SplineSet
116 636 m 1,0,-1
 196 487 l 1,1,-1
 113 531 l 1,2,-1
 11 468 l 1,3,-1
 116 636 l 1,0,-1
69 460 m 1,4,-1
 145 466 l 1,5,-1
 191 14 l 1,6,-1
 72 -38 l 1,7,-1
 69 460 l 1,4,-1
EndSplineSet
Validated: 1
EndChar

StartChar: idieresis
Encoding: 239 239 156
Width: 246
GlyphClass: 1
Flags: W
LayerCount: 2
Fore
SplineSet
154 584 m 1,0,-1
 232 583 l 1,1,-1
 217 515 l 1,2,-1
 145 515 l 1,3,-1
 154 584 l 1,0,-1
81 460 m 1,4,-1
 157 466 l 1,5,-1
 203 14 l 1,6,-1
 84 -38 l 1,7,-1
 81 460 l 1,4,-1
21 572 m 1,8,-1
 100 572 l 1,9,-1
 84 504 l 1,10,-1
 12 504 l 1,11,-1
 21 572 l 1,8,-1
EndSplineSet
Validated: 1
EndChar

StartChar: ntilde
Encoding: 241 241 157
Width: 532
GlyphClass: 1
Flags: W
LayerCount: 2
Fore
SplineSet
139 497 m 1,0,-1
 150 414 l 1,1,-1
 277 508 l 1,2,-1
 483 347 l 1,3,-1
 468 -65 l 1,4,-1
 371 -46 l 1,5,-1
 379 309 l 1,6,-1
 266 384 l 1,7,-1
 154 313 l 1,8,-1
 150 -20 l 1,9,-1
 27 -24 l 1,10,-1
 27 463 l 1,11,-1
 139 497 l 1,0,-1
26 664 m 1,12,-1
 166 779 l 1,13,-1
 414 609 l 1,14,-1
 426 712 l 1,15,-1
 514 691 l 1,16,-1
 460 494 l 1,17,-1
 163 667 l 1,18,-1
 20 542 l 1,19,-1
 26 664 l 1,12,-1
EndSplineSet
Validated: 1
EndChar

StartChar: ograve
Encoding: 242 242 158
Width: 422
GlyphClass: 1
Flags: W
LayerCount: 2
Fore
SplineSet
17 381 m 1,0,-1
 376 433 l 1,1,-1
 407 -29 l 1,2,-1
 52 -8 l 1,3,-1
 17 381 l 1,0,-1
147 97 m 1,4,-1
 305 74 l 1,5,-1
 285 326 l 1,6,-1
 128 297 l 1,7,-1
 147 97 l 1,4,-1
67 617 m 1,8,-1
 166 675 l 1,9,-1
 265 474 l 1,10,-1
 67 617 l 1,8,-1
EndSplineSet
Validated: 1
EndChar

StartChar: oacute
Encoding: 243 243 159
Width: 424
GlyphClass: 1
Flags: W
LayerCount: 2
Fore
SplineSet
14 381 m 1,0,-1
 373 433 l 1,1,-1
 404 -29 l 1,2,-1
 49 -8 l 1,3,-1
 14 381 l 1,0,-1
144 97 m 1,4,-1
 302 74 l 1,5,-1
 282 326 l 1,6,-1
 125 297 l 1,7,-1
 144 97 l 1,4,-1
155 489 m 1,8,-1
 316 636 l 1,9,-1
 387 556 l 1,10,-1
 159 439 l 1,11,-1
 155 489 l 1,8,-1
EndSplineSet
Validated: 1
EndChar

StartChar: ocircumflex
Encoding: 244 244 160
Width: 426
GlyphClass: 1
Flags: W
LayerCount: 2
Fore
SplineSet
18 381 m 1,0,-1
 377 433 l 1,1,-1
 408 -29 l 1,2,-1
 53 -8 l 1,3,-1
 18 381 l 1,0,-1
148 97 m 1,4,-1
 306 74 l 1,5,-1
 286 326 l 1,6,-1
 129 297 l 1,7,-1
 148 97 l 1,4,-1
119 629 m 1,8,-1
 239 651 l 1,9,-1
 370 477 l 1,10,-1
 257 460 l 1,11,-1
 190 569 l 1,12,-1
 119 442 l 1,13,-1
 31 428 l 1,14,-1
 119 629 l 1,8,-1
EndSplineSet
Validated: 1
EndChar

StartChar: otilde
Encoding: 245 245 161
Width: 428
GlyphClass: 1
Flags: W
LayerCount: 2
Fore
SplineSet
19 381 m 1,0,-1
 378 433 l 1,1,-1
 409 -29 l 1,2,-1
 54 -8 l 1,3,-1
 19 381 l 1,0,-1
149 97 m 1,4,-1
 307 74 l 1,5,-1
 287 326 l 1,6,-1
 130 297 l 1,7,-1
 149 97 l 1,4,-1
105 636 m 1,8,-1
 281 550 l 1,9,-1
 345 625 l 1,10,-1
 334 468 l 1,11,-1
 124 528 l 1,12,-1
 34 434 l 1,13,-1
 105 636 l 1,8,-1
EndSplineSet
Validated: 1
EndChar

StartChar: odieresis
Encoding: 246 246 162
Width: 427
GlyphClass: 1
Flags: W
LayerCount: 2
Fore
SplineSet
18 381 m 1,0,-1
 377 433 l 1,1,-1
 408 -29 l 1,2,-1
 53 -8 l 1,3,-1
 18 381 l 1,0,-1
148 97 m 1,4,-1
 306 74 l 1,5,-1
 286 326 l 1,6,-1
 129 297 l 1,7,-1
 148 97 l 1,4,-1
127 573 m 1,8,-1
 159 481 l 1,9,-1
 56 473 l 1,10,-1
 56 549 l 1,11,-1
 127 573 l 1,8,-1
326 597 m 1,12,-1
 334 509 l 1,13,-1
 239 497 l 1,14,-1
 235 589 l 1,15,-1
 326 597 l 1,12,-1
EndSplineSet
Validated: 1
EndChar

StartChar: divide
Encoding: 247 247 163
Width: 460
GlyphClass: 1
Flags: W
LayerCount: 2
Fore
SplineSet
440 384 m 1,0,-1
 450 313 l 1,1,-1
 20 290 l 1,2,-1
 12 387 l 1,3,-1
 440 384 l 1,0,-1
244 535 m 1,4,-1
 277 448 l 1,5,-1
 157 433 l 1,6,-1
 155 535 l 1,7,-1
 244 535 l 1,4,-1
170 247 m 1,8,-1
 282 249 l 1,9,-1
 269 132 l 1,10,-1
 173 153 l 1,11,-1
 170 247 l 1,8,-1
EndSplineSet
Validated: 1
EndChar

StartChar: oslash
Encoding: 248 248 164
Width: 516
GlyphClass: 1
Flags: W
LayerCount: 2
Fore
SplineSet
70 381 m 1,0,-1
 429 433 l 1,1,-1
 460 -29 l 1,2,-1
 105 -8 l 1,3,-1
 70 381 l 1,0,-1
200 97 m 1,4,-1
 358 74 l 1,5,-1
 338 326 l 1,6,-1
 181 297 l 1,7,-1
 200 97 l 1,4,-1
473 432 m 1,8,-1
 285 162 l 1,9,-1
 110 -64 l 1,10,-1
 12 -114 l 1,11,-1
 65 -8 l 1,12,-1
 240 220 l 1,13,-1
 397 464 l 1,14,-1
 500 559 l 1,15,-1
 473 432 l 1,8,-1
EndSplineSet
Validated: 5
EndChar

StartChar: ugrave
Encoding: 249 249 165
Width: 422
GlyphClass: 1
Flags: W
LayerCount: 2
Fore
SplineSet
28 472 m 1,0,-1
 157 493 l 1,1,-1
 128 119 l 1,2,-1
 241 91 l 1,3,-1
 309 82 l 1,4,-1
 317 461 l 1,5,-1
 407 424 l 1,6,-1
 404 29 l 1,7,-1
 258 3 l 1,8,-1
 20 42 l 1,9,-1
 28 472 l 1,0,-1
47 636 m 1,10,-1
 122 714 l 1,11,-1
 267 518 l 1,12,-1
 47 636 l 1,10,-1
EndSplineSet
Validated: 1
EndChar

StartChar: uacute
Encoding: 250 250 166
Width: 459
GlyphClass: 1
Flags: W
LayerCount: 2
Fore
SplineSet
22 472 m 1,0,-1
 151 493 l 1,1,-1
 122 119 l 1,2,-1
 235 91 l 1,3,-1
 303 82 l 1,4,-1
 311 461 l 1,5,-1
 401 424 l 1,6,-1
 398 29 l 1,7,-1
 252 3 l 1,8,-1
 14 42 l 1,9,-1
 22 472 l 1,0,-1
356 688 m 1,10,-1
 441 621 l 1,11,-1
 231 497 l 1,12,-1
 356 688 l 1,10,-1
EndSplineSet
Validated: 1
EndChar

StartChar: ucircumflex
Encoding: 251 251 167
Width: 426
GlyphClass: 1
Flags: W
LayerCount: 2
Fore
SplineSet
27 472 m 1,0,-1
 156 493 l 1,1,-1
 127 119 l 1,2,-1
 240 91 l 1,3,-1
 308 82 l 1,4,-1
 316 461 l 1,5,-1
 406 424 l 1,6,-1
 403 29 l 1,7,-1
 257 3 l 1,8,-1
 19 42 l 1,9,-1
 27 472 l 1,0,-1
252 694 m 1,10,-1
 398 547 l 1,11,-1
 376 500 l 1,12,-1
 236 611 l 1,13,-1
 61 538 l 1,14,-1
 36 576 l 1,15,-1
 252 694 l 1,10,-1
EndSplineSet
Validated: 1
EndChar

StartChar: udieresis
Encoding: 252 252 168
Width: 427
GlyphClass: 1
Flags: W
LayerCount: 2
Fore
SplineSet
28 472 m 1,0,-1
 157 493 l 1,1,-1
 128 119 l 1,2,-1
 241 91 l 1,3,-1
 309 82 l 1,4,-1
 317 461 l 1,5,-1
 407 424 l 1,6,-1
 404 29 l 1,7,-1
 258 3 l 1,8,-1
 20 42 l 1,9,-1
 28 472 l 1,0,-1
149 640 m 1,10,-1
 156 563 l 1,11,-1
 46 559 l 1,12,-1
 59 643 l 1,13,-1
 149 640 l 1,10,-1
374 606 m 1,14,-1
 360 536 l 1,15,-1
 267 553 l 1,16,-1
 283 633 l 1,17,-1
 374 606 l 1,14,-1
EndSplineSet
Validated: 1
EndChar

StartChar: yacute
Encoding: 253 253 169
Width: 442
GlyphClass: 1
Flags: W
LayerCount: 2
Fore
SplineSet
136 364 m 1,0,-1
 161 120 l 1,1,-1
 288 78 l 1,2,-1
 323 396 l 1,3,-1
 426 350 l 1,4,-1
 371 -88 l 1,5,-1
 70 -209 l 1,6,-1
 14 -138 l 1,7,-1
 256 -39 l 1,8,-1
 84 55 l 1,9,-1
 12 315 l 1,10,-1
 136 364 l 1,0,-1
299 651 m 1,11,-1
 415 621 l 1,12,-1
 236 389 l 1,13,-1
 299 651 l 1,11,-1
EndSplineSet
Validated: 1
EndChar

StartChar: ydieresis
Encoding: 255 255 170
Width: 480
GlyphClass: 1
Flags: W
LayerCount: 2
Fore
SplineSet
147 364 m 1,0,-1
 172 120 l 1,1,-1
 299 78 l 1,2,-1
 334 396 l 1,3,-1
 437 350 l 1,4,-1
 382 -88 l 1,5,-1
 81 -209 l 1,6,-1
 25 -138 l 1,7,-1
 267 -39 l 1,8,-1
 95 55 l 1,9,-1
 23 315 l 1,10,-1
 147 364 l 1,0,-1
154 513 m 1,11,-1
 134 422 l 1,12,-1
 19 437 l 1,13,-1
 63 553 l 1,14,-1
 154 513 l 1,11,-1
341 445 m 1,15,-1
 353 541 l 1,16,-1
 452 545 l 1,17,-1
 464 402 l 1,18,-1
 341 445 l 1,15,-1
EndSplineSet
Validated: 1
EndChar

StartChar: at
Encoding: 64 64 171
Width: 873
GlyphClass: 1
Flags: W
LayerCount: 2
Fore
SplineSet
586 784 m 1,0,-1
 770 692 l 1,1,-1
 754 163 l 1,2,-1
 688 51 l 1,3,-1
 599 43 l 1,4,-1
 523 127 l 1,5,-1
 423 43 l 1,6,-1
 286 76 l 1,7,-1
 248 453 l 1,8,-1
 418 535 l 1,9,-1
 561 473 l 1,10,-1
 617 186 l 1,11,-1
 622 606 l 1,12,-1
 222 593 l 1,13,-1
 138 280 l 1,14,-1
 194 -28 l 1,15,-1
 640 -56 l 1,16,-1
 856 51 l 1,17,-1
 642 -193 l 1,18,-1
 72 -137 l 1,19,-1
 19 283 l 1,20,-1
 105 703 l 1,21,-1
 586 784 l 1,0,-1
421 415 m 1,22,-1
 357 372 l 1,23,-1
 355 160 l 1,24,-1
 423 163 l 1,25,-1
 512 260 l 1,26,-1
 502 384 l 1,27,-1
 421 415 l 1,22,-1
EndSplineSet
Validated: 1
EndChar

StartChar: Lslash
Encoding: 28 28 172
Width: 620
GlyphClass: 1
Flags: W
LayerCount: 2
Fore
SplineSet
120 663 m 1,0,-1
 265 710 l 1,1,-1
 271 84 l 1,2,-1
 584 136 l 1,3,-1
 609 -5 l 1,4,-1
 132 -24 l 1,5,-1
 120 663 l 1,0,-1
15 305 m 1,6,-1
 371 400 l 1,7,-1
 371 347 l 1,8,-1
 53 257 l 1,9,-1
 15 305 l 1,6,-1
EndSplineSet
Validated: 5
EndChar

StartChar: minus
Encoding: 173 173 173
Width: 482
GlyphClass: 1
Flags: W
LayerCount: 2
Fore
SplineSet
458 306 m 1,0,-1
 461 230 l 1,1,-1
 25 227 l 1,2,-1
 22 318 l 1,3,-1
 458 306 l 1,0,-1
EndSplineSet
Validated: 1
EndChar

StartChar: plusminus
Encoding: 177 177 174
Width: 378
GlyphClass: 1
Flags: W
LayerCount: 2
Fore
SplineSet
139 633 m 1,0,-1
 228 633 l 1,1,-1
 232 490 l 1,2,-1
 352 493 l 1,3,-1
 349 388 l 1,4,-1
 251 382 l 1,5,-1
 267 293 l 1,6,-1
 120 293 l 1,7,-1
 146 401 l 1,8,-1
 50 430 l 1,9,-1
 57 512 l 1,10,-1
 158 496 l 1,11,-1
 139 633 l 1,0,-1
362 226 m 1,12,-1
 15 232 l 1,13,-1
 15 172 l 1,14,-1
 343 156 l 1,15,-1
 362 226 l 1,12,-1
EndSplineSet
Validated: 9
EndChar

StartChar: twosuperior
Encoding: 178 178 175
Width: 359
GlyphClass: 1
Flags: W
LayerCount: 2
Fore
SplineSet
299 690 m 1,0,-1
 312 489 l 1,1,-1
 108 466 l 1,2,-1
 105 422 l 1,3,-1
 333 425 l 1,4,-1
 339 352 l 1,5,-1
 38 352 l 1,6,-1
 21 529 l 1,7,-1
 235 526 l 1,8,-1
 235 610 l 1,9,-1
 31 613 l 1,10,-1
 38 690 l 1,11,-1
 299 690 l 1,0,-1
EndSplineSet
Validated: 1
EndChar

StartChar: threesuperior
Encoding: 179 179 176
Width: 326
GlyphClass: 1
Flags: W
LayerCount: 2
Fore
SplineSet
20 700 m 1,0,-1
 282 721 l 1,1,-1
 306 364 l 1,2,-1
 34 343 l 1,3,-1
 31 414 l 1,4,-1
 204 431 l 1,5,-1
 190 506 l 1,6,-1
 119 502 l 1,7,-1
 108 569 l 1,8,-1
 190 576 l 1,9,-1
 183 647 l 1,10,-1
 20 626 l 1,11,-1
 20 700 l 1,0,-1
EndSplineSet
Validated: 1
EndChar

StartChar: acute
Encoding: 180 180 177
Width: 165
GlyphClass: 1
Flags: W
LayerCount: 2
Fore
SplineSet
16 498 m 1,0,-1
 61 711 l 1,1,-1
 158 636 l 1,2,-1
 16 498 l 1,0,-1
EndSplineSet
Validated: 1
EndChar

StartChar: onesuperior
Encoding: 185 185 178
Width: 109
GlyphClass: 1
Flags: W
LayerCount: 2
Fore
SplineSet
88 648 m 1,0,-1
 88 378 l 1,1,-1
 24 350 l 1,2,-1
 21 684 l 1,3,-1
 88 648 l 1,0,-1
EndSplineSet
Validated: 1
EndChar

StartChar: ordmasculine
Encoding: 186 186 179
Width: 332
GlyphClass: 1
Flags: W
LayerCount: 2
Fore
SplineSet
310 407 m 1,0,-1
 22 405 l 1,1,-1
 65 669 l 1,2,-1
 248 680 l 1,3,-1
 310 407 l 1,0,-1
142 456 m 1,4,-1
 192 456 l 1,5,-1
 213 601 l 1,6,-1
 114 603 l 1,7,-1
 142 456 l 1,4,-1
EndSplineSet
Validated: 1
EndChar

StartChar: Thorn
Encoding: 222 222 180
Width: 544
GlyphClass: 1
Flags: W
LayerCount: 2
Fore
SplineSet
231 610 m 1,0,-1
 243 505 l 1,1,-1
 449 504 l 1,2,-1
 533 424 l 1,3,-1
 528 281 l 1,4,-1
 449 186 l 1,5,-1
 240 175 l 1,6,-1
 240 -3 l 1,7,-1
 16 -3 l 1,8,-1
 141 66 l 1,9,-1
 128 581 l 1,10,-1
 35 681 l 1,11,-1
 231 610 l 1,0,-1
221 321 m 1,12,-1
 381 268 l 1,13,-1
 452 333 l 1,14,-1
 406 418 l 1,15,-1
 234 429 l 1,16,-1
 221 321 l 1,12,-1
EndSplineSet
Validated: 1
EndChar

StartChar: germandbls
Encoding: 223 223 181
Width: 427
GlyphClass: 1
Flags: W
LayerCount: 2
Fore
SplineSet
-75 -58 m 1,0,-1
 46 -69 l 1,1,-1
 50 708 l 1,2,-1
 258 755 l 1,3,-1
 396 642 l 1,4,-1
 407 470 l 1,5,-1
 319 401 l 1,6,-1
 407 304 l 1,7,-1
 405 64 l 1,8,-1
 330 0 l 1,9,-1
 181 6 l 1,10,-1
 167 163 l 1,11,-1
 239 160 l 1,12,-1
 264 75 l 1,13,-1
 333 111 l 1,14,-1
 324 260 l 1,15,-1
 200 401 l 1,16,-1
 311 495 l 1,17,-1
 297 603 l 1,18,-1
 230 620 l 1,19,-1
 139 587 l 1,20,-1
 115 -171 l 1,21,-1
 -73 -149 l 1,22,-1
 -75 -58 l 1,0,-1
EndSplineSet
Validated: 1
EndChar

StartChar: paragraph
Encoding: 182 182 182
Width: 524
GlyphClass: 1
Flags: W
LayerCount: 2
Fore
SplineSet
506 590 m 1,0,-1
 439 599 l 1,1,-1
 448 -234 l 1,2,-1
 367 -231 l 1,3,-1
 373 616 l 1,4,-1
 280 622 l 1,5,-1
 280 -217 l 1,6,-1
 211 -226 l 1,7,-1
 228 260 l 1,8,-1
 127 260 l 1,9,-1
 14 333 l 1,10,-1
 37 599 l 1,11,-1
 179 703 l 1,12,-1
 491 683 l 1,13,-1
 506 590 l 1,0,-1
EndSplineSet
Validated: 1
EndChar

StartChar: caron
Encoding: 12 12 183
Width: 344
GlyphClass: 1
Flags: W
LayerCount: 2
Fore
SplineSet
7 682 m 1,0,-1
 168 555 l 1,1,-1
 329 758 l 1,2,-1
 201 433 l 1,3,-1
 7 682 l 1,0,-1
EndSplineSet
Validated: 1
EndChar

StartChar: dotaccent
Encoding: 6 6 184
Width: 167
GlyphClass: 1
Flags: W
LayerCount: 2
Fore
SplineSet
17 655 m 1,0,-1
 128 655 l 1,1,-1
 147 506 l 1,2,-1
 39 522 l 1,3,-1
 17 655 l 1,0,-1
EndSplineSet
Validated: 1
EndChar

StartChar: lslash
Encoding: 29 29 185
Width: 329
GlyphClass: 1
Flags: W
LayerCount: 2
Fore
SplineSet
74 650 m 1,0,-1
 181 767 l 1,1,-1
 211 -13 l 1,2,-1
 114 -13 l 1,3,-1
 124 643 l 1,4,-1
 74 650 l 1,0,-1
11 358 m 1,5,-1
 292 549 l 1,6,-1
 319 506 l 1,7,-1
 38 295 l 1,8,-1
 11 358 l 1,5,-1
EndSplineSet
Validated: 5
EndChar

StartChar: Zcaron
Encoding: 30 30 186
Width: 571
GlyphClass: 1
Flags: W
LayerCount: 2
Fore
SplineSet
38 690 m 1,0,-1
 524 700 l 1,1,-1
 541 495 l 1,2,-1
 180 184 l 1,3,-1
 552 194 l 1,4,-1
 517 -23 l 1,5,-1
 18 7 l 1,6,-1
 49 238 l 1,7,-1
 400 559 l 1,8,-1
 27 535 l 1,9,-1
 38 690 l 1,0,-1
145 912 m 1,10,-1
 279 817 l 1,11,-1
 421 923 l 1,12,-1
 502 909 l 1,13,-1
 368 749 l 1,14,-1
 209 739 l 1,15,-1
 43 894 l 1,16,-1
 145 912 l 1,10,-1
EndSplineSet
Validated: 1
EndChar

StartChar: zcaron
Encoding: 31 31 187
Width: 490
GlyphClass: 1
Flags: W
LayerCount: 2
Fore
SplineSet
72 406 m 1,0,-1
 469 414 l 1,1,-1
 231 72 l 1,2,-1
 445 80 l 1,3,-1
 461 -20 l 1,4,-1
 20 -4 l 1,5,-1
 274 306 l 1,6,-1
 40 310 l 1,7,-1
 72 406 l 1,0,-1
274 558 m 1,8,-1
 458 644 l 1,9,-1
 274 453 l 1,10,-1
 83 573 l 1,11,-1
 274 558 l 1,8,-1
EndSplineSet
Validated: 1
EndChar

StartChar: thorn
Encoding: 254 254 188
Width: 453
GlyphClass: 1
Flags: W
LayerCount: 2
Fore
SplineSet
126 716 m 1,0,-1
 194 462 l 1,1,-1
 369 464 l 1,2,-1
 444 354 l 1,3,-1
 444 104 l 1,4,-1
 354 16 l 1,5,-1
 185 21 l 1,6,-1
 121 -226 l 1,7,-1
 20 -222 l 1,8,-1
 107 288 l 1,9,-1
 29 740 l 1,10,-1
 126 716 l 1,0,-1
189 394 m 1,11,-1
 218 255 l 1,12,-1
 197 71 l 1,13,-1
 347 75 l 1,14,-1
 404 236 l 1,15,-1
 378 379 l 1,16,-1
 189 394 l 1,11,-1
EndSplineSet
Validated: 1
EndChar

StartChar: questiondown
Encoding: 191 191 189
Width: 436
GlyphClass: 1
Flags: W
LayerCount: 2
Fore
SplineSet
419 187 m 1,0,-1
 421 32 l 1,1,-1
 208 -75 l 1,2,-1
 13 94 l 1,3,-1
 51 362 l 1,4,-1
 157 402 l 1,5,-1
 173 509 l 1,6,-1
 300 494 l 1,7,-1
 260 341 l 1,8,-1
 132 247 l 1,9,-1
 214 71 l 1,10,-1
 322 96 l 1,11,-1
 419 187 l 1,0,-1
165 637 m 1,12,-1
 280 701 l 1,13,-1
 348 588 l 1,14,-1
 242 543 l 1,15,-1
 165 637 l 1,12,-1
EndSplineSet
Validated: 1
EndChar

StartChar: scaron
Encoding: 353 353 190
Width: 395
GlyphClass: 1
Flags: W
LayerCount: 2
Fore
SplineSet
339 357 m 1,0,-1
 155 403 l 1,1,-1
 131 346 l 1,2,-1
 297 265 l 1,3,-1
 374 -14 l 1,4,-1
 21 18 l 1,5,-1
 85 124 l 1,6,-1
 275 88 l 1,7,-1
 240 202 l 1,8,-1
 67 219 l 1,9,-1
 28 371 l 1,10,-1
 81 484 l 1,11,-1
 374 449 l 1,12,-1
 339 357 l 1,0,-1
210 580 m 1,13,-1
 371 700 l 1,14,-1
 238 496 l 1,15,-1
 24 654 l 1,16,-1
 210 580 l 1,13,-1
EndSplineSet
Validated: 1
EndChar

StartChar: A
Encoding: 65 65 191
Width: 569
GlyphClass: 1
Flags: W
LayerCount: 2
Fore
SplineSet
20 0 m 1,0,-1
 76 780 l 1,1,-1
 480 751 l 1,2,-1
 523 -4 l 1,3,-1
 375 -2 l 1,4,-1
 356 341 l 1,5,-1
 179 355 l 1,6,-1
 167 -4 l 1,7,-1
 20 0 l 1,0,-1
185 490 m 1,8,-1
 347 456 l 1,9,-1
 335 634 l 1,10,-1
 193 668 l 1,11,-1
 185 490 l 1,8,-1
EndSplineSet
Validated: 1
EndChar

StartChar: B
Encoding: 66 66 192
Width: 540
GlyphClass: 1
Flags: W
LayerCount: 2
Fore
SplineSet
378 749 m 1,0,-1
 354 420 l 1,1,-1
 517 350 l 1,2,-1
 519 -2 l 1,3,-1
 22 -10 l 1,4,-1
 28 779 l 1,5,-1
 378 749 l 1,0,-1
128 645 m 1,6,-1
 123 443 l 1,7,-1
 283 459 l 1,8,-1
 266 637 l 1,9,-1
 128 645 l 1,6,-1
141 299 m 1,10,-1
 138 104 l 1,11,-1
 410 89 l 1,12,-1
 359 288 l 1,13,-1
 141 299 l 1,10,-1
EndSplineSet
Validated: 1
EndChar

StartChar: C
Encoding: 67 67 193
Width: 554
GlyphClass: 1
Flags: W
LayerCount: 2
Fore
SplineSet
18 515 m 1,0,-1
 180 709 l 1,1,-1
 435 706 l 1,2,-1
 536 492 l 1,3,-1
 415 426 l 1,4,-1
 318 573 l 1,5,-1
 155 481 l 1,6,-1
 169 142 l 1,7,-1
 334 58 l 1,8,-1
 409 182 l 1,9,-1
 530 153 l 1,10,-1
 438 -40 l 1,11,-1
 71 26 l 1,12,-1
 18 515 l 1,0,-1
EndSplineSet
Validated: 1
EndChar

StartChar: G
Encoding: 71 71 194
Width: 575
GlyphClass: 1
Flags: W
LayerCount: 2
Fore
SplineSet
177 562 m 1,0,-1
 145 137 l 1,1,-1
 401 115 l 1,2,-1
 393 293 l 1,3,-1
 333 287 l 1,4,-1
 335 234 l 1,5,-1
 234 237 l 1,6,-1
 243 402 l 1,7,-1
 504 410 l 1,8,-1
 514 7 l 1,9,-1
 20 0 l 1,10,-1
 57 696 l 1,11,-1
 500 670 l 1,12,-1
 495 534 l 1,13,-1
 177 562 l 1,0,-1
EndSplineSet
Validated: 1
EndChar

StartChar: E
Encoding: 69 69 195
Width: 545
GlyphClass: 1
Flags: W
LayerCount: 2
Fore
SplineSet
475 716 m 1,0,-1
 497 570 l 1,1,-1
 157 578 l 1,2,-1
 193 416 l 1,3,-1
 342 413 l 1,4,-1
 337 293 l 1,5,-1
 188 305 l 1,6,-1
 207 80 l 1,7,-1
 525 110 l 1,8,-1
 503 -47 l 1,9,-1
 68 -51 l 1,10,-1
 20 692 l 1,11,-1
 475 716 l 1,0,-1
EndSplineSet
Validated: 1
EndChar

StartChar: F
Encoding: 70 70 196
Width: 412
GlyphClass: 1
Flags: W
LayerCount: 2
Fore
SplineSet
77 2 m 1,0,-1
 19 629 l 1,1,-1
 424 692 l 1,2,-1
 483 553 l 1,3,-1
 134 495 l 1,4,-1
 147 357 l 1,5,-1
 265 393 l 1,6,-1
 294 282 l 1,7,-1
 178 258 l 1,8,-1
 246 0 l 1,9,-1
 77 2 l 1,0,-1
EndSplineSet
Validated: 1
EndChar

StartChar: guilsinglleft
Encoding: 8249 8249 197
Width: 500
GlyphClass: 1
Flags: W
LayerCount: 2
Fore
SplineSet
334 216 m 1,0,-1
 417 0 l 1,1,-1
 177 220 l 1,2,-1
 444 456 l 1,3,-1
 334 216 l 1,0,-1
EndSplineSet
Validated: 1
EndChar

StartChar: guillemotleft
Encoding: 171 171 198
Width: 500
GlyphClass: 1
Flags: W
LayerCount: 2
Fore
SplineSet
199 236 m 1,0,-1
 338 -7 l 1,1,-1
 85 236 l 1,2,-1
 379 501 l 1,3,-1
 199 236 l 1,0,-1
425 236 m 1,4,-1
 498 -7 l 1,5,-1
 321 248 l 1,6,-1
 508 489 l 1,7,-1
 425 236 l 1,4,-1
EndSplineSet
Validated: 1
EndChar

StartChar: registered
Encoding: 174 174 199
Width: 1010
GlyphClass: 1
Flags: W
LayerCount: 2
Fore
SplineSet
118 302 m 1,0,-1
 214 45 l 1,1,-1
 643 25 l 1,2,-1
 866 316 l 1,3,-1
 666 666 l 1,4,-1
 265 663 l 1,5,-1
 118 302 l 1,0,-1
192 751 m 1,6,-1
 714 782 l 1,7,-1
 995 316 l 1,8,-1
 700 -62 l 1,9,-1
 135 -28 l 1,10,-1
 5 331 l 1,11,-1
 192 751 l 1,6,-1
280 585 m 1,12,-1
 255 119 l 1,13,-1
 378 111 l 1,14,-1
 381 316 l 1,15,-1
 418 304 l 1,16,-1
 489 97 l 1,17,-1
 639 84 l 1,18,-1
 494 316 l 1,19,-1
 575 337 l 1,20,-1
 545 563 l 1,21,-1
 280 585 l 1,12,-1
379 385 m 1,22,-1
 397 507 l 1,23,-1
 450 487 l 1,24,-1
 472 406 l 1,25,-1
 379 385 l 1,22,-1
EndSplineSet
Validated: 9
EndChar

StartChar: J
Encoding: 74 74 200
Width: 528
GlyphClass: 1
Flags: W
LayerCount: 2
Fore
SplineSet
41 677 m 1,0,-1
 510 694 l 1,1,-1
 486 108 l 1,2,-1
 88 -53 l 1,3,-1
 19 296 l 1,4,-1
 176 376 l 1,5,-1
 179 97 l 1,6,-1
 353 177 l 1,7,-1
 351 547 l 1,8,-1
 19 506 l 1,9,-1
 41 677 l 1,0,-1
EndSplineSet
Validated: 1
EndChar

StartChar: H
Encoding: 72 72 201
Width: 557
GlyphClass: 1
Flags: W
LayerCount: 2
Fore
SplineSet
163 672 m 1,0,-1
 163 410 l 1,1,-1
 378 427 l 1,2,-1
 346 731 l 1,3,-1
 509 699 l 1,4,-1
 536 -38 l 1,5,-1
 427 -21 l 1,6,-1
 390 288 l 1,7,-1
 174 266 l 1,8,-1
 179 0 l 1,9,-1
 58 -32 l 1,10,-1
 20 692 l 1,11,-1
 163 672 l 1,0,-1
EndSplineSet
Validated: 1
EndChar

StartChar: I
Encoding: 73 73 202
Width: 462
GlyphClass: 1
Flags: W
LayerCount: 2
Fore
SplineSet
26 663 m 1,0,-1
 429 696 l 1,1,-1
 437 571 l 1,2,-1
 326 566 l 1,3,-1
 309 109 l 1,4,-1
 441 114 l 1,5,-1
 427 -2 l 1,6,-1
 31 2 l 1,7,-1
 19 116 l 1,8,-1
 156 107 l 1,9,-1
 200 566 l 1,10,-1
 36 545 l 1,11,-1
 26 663 l 1,0,-1
EndSplineSet
Validated: 1
EndChar
